**ABCDEFGHIJKLMNOPQRSTUVWXYZabcdefghijklmnopqrstuvwxyz**************************
**PARASOLID !"#$%&'()*+,-./:;<=>?@[\]^_`{|}~0123456789**************************
**PART1;
MC=unknown;
MC_MODEL=unknown;
MC_ID=unknown;
OS=unknown;
OS_RELEASE=unknown;
FRU=Parasolid 35.1.246;
APPL=Onshape;
SITE=unknown;
USER=unknown;
FORMAT=text;
GUISE=transmit;
KEY=BTGapi::writeModels_.xmt;
FILE=BTGapi::writeModels_.xmt;
DATE=2024-02-28T14:59:02 (UTC);
**PART2;
SCH=SCH_3501246_35102;
USFLD_SIZE=0;
**PART3;
**END_OF_HEADER*****************************************************************
T51 : TRANSMIT FILE created by modeller version 350124623 SCH_3501246_35102_1300
6231 0 12 36 CCCI7 lattice222 0 CCCI4 mesh1006 0 I8 polyline1008 0 CCCCCCCDI5 ow
ner1040 0 CCCI16 boundary_lattice222 0 CCCI13 boundary_mesh1006 0 I17 boundary_p
olyline1008 0 CCCA16 index_map_offset0 0 1 dA9 index_map82 0 A17 node_id_index_m
ap82 0 A20 schema_embedding_map82 0 A5 child12 0 A14 lowest_node_id0 0 1 dA16 me
sh_offset_data206 0 Z1 1799 2 3 0 0 0 0 0 0 0 1e3 1e-8 0 4 5 1 0 1 2 6 0 7 8 9 0
 0 10 11 12 0 0 0 0 0 0 0 81 255 1 2 1757 13 1 14 0 0 0 15 70 11 CI9 list_type0
 0 1 uI10 notransmit0 0 1 lCCCDCCDI12 finger_index0 0 1 dI12 finger_block1012 0
 CZ3 0 4 T1 0 0 5 20 1 16 16 13 255 6 5 0 1 0 17 0 0 18 0 50 255 7 1041 0 19 20
 0 0 +-273551385120234e-20 -.0060003 .002826945497382165 0 -1 0 1 0 0 31 255 8 1
415 0 21 22 0 0 +-.029127734900036 0 -.01456236486109554 0 -1 0 0 0 -1 .00700034
986601148 29 255 9 1377 0 23 24 0 .01764498958538135 -.0060003 .0334614915666238
 19 9 CCCCCCI5 frame230 0 CA5 owner12 0 Z10 3 0 1 18 0 25 0 V0 16 255 11 318 26
 ?27 0 28 29 0 0 1 18 255 12 554 30 31 0 32 33 ?1 81 1 30 1591 34 12 0 0 35 36 3
7 17 255 31 0 38 39 40 12 41 42 0 43 -18 32 552 44 45 12 46 47 ?1 29 33 1341 0 1
2 48 49 -.03066899139205855 0 .0345009455447808 29 48 1340 0 50 51 33 -.04523889
17561714 0 .00926449816233071 29 49 1342 0 52 33 53 .02018015242422185 0 -.03205
618463557805 18 52 526 54 55 50 56 49 ?1 29 53 1343 0 57 49 58 .0201798853820617
5 0 -.03130659538491815 18 57 522 59 60 56 61 53 ?1 29 58 1344 0 62 53 63 -.0201
8095252048415 0 -.03130656486581415 18 62 518 64 65 61 66 58 ?1 29 63 1345 0 67
 58 68 -.0201811833212082 0 -.0320570162811622 18 67 514 69 70 66 71 63 ?1 29 68
 1346 0 72 63 73 -.0176476093832199 0 .0334615869388238 18 72 510 74 75 71 76 68
 ?1 29 73 1347 0 77 68 78 -.0378277355418388 0 -.00149229909201709 18 77 506 79
 80 76 81 73 ?1 29 78 1348 0 82 73 83 -.03717817837688365 0 -.001867311762039345
 18 82 502 84 85 81 86 78 ?1 29 83 1349 0 87 78 88 -.0169980522182647 0 .0330865
7581859985 18 87 498 89 90 86 91 83 ?1 29 88 1350 0 92 83 93 .0169952035271462 0
 .0330860531789437 18 92 494 94 95 91 23 88 ?1 29 93 1351 0 96 88 97 .0371764112
065132 0 -.001867002160035085 18 96 490 98 99 23 100 93 ?1 29 97 1352 0 101 93 1
02 .03782570132930845 0 -.001492425698612558 18 101 486 103 104 100 105 97 ?1 29
 102 1353 0 106 97 107 .01764498958538135 0 .0334614915666238 18 106 482 108 109
 105 110 102 ?1 29 107 1354 0 111 102 112 -.0243385586142723 -.0060003 .03546516
611668025 18 111 478 113 114 110 115 107 ?1 29 112 1355 0 115 107 116 .024335645
0700577 -.0060003 .03546816080376065 18 115 476 117 118 111 119 112 ?1 29 116 13
56 0 120 112 121 .03066608547761995 -.0060003 .0345040012700692 18 120 544 122 1
23 124 125 116 ?1 29 121 1357 0 119 116 126 .0452381622353371 -.0060003 .0092643
4556681069 18 119 474 127 128 115 129 121 ?1 29 126 1358 0 129 121 130 .04290791
038311085 -.0060003 .00329994938522727 18 129 472 131 132 119 133 126 ?1 29 130
 1359 0 133 126 134 .0185724289146241 -.0060003 -.0388537275596961 18 133 470 13
5 136 129 137 130 ?1 29 134 1360 0 137 130 138 .01457222891462408 -.0060003 -.04
385397755969615 18 137 468 139 140 133 141 134 ?1 29 138 1361 0 141 134 142 -.01
457148588869014 -.0060003 -.04385397755969615 18 141 466 143 144 137 145 138 ?1
 29 142 1362 0 145 138 146 -.0185716858886902 -.0060003 -.0388537275596961 18 14
5 464 147 148 141 149 142 ?1 29 146 1363 0 149 142 150 -.0429085826806251 -.0060
003 .003300123916353325 18 149 462 151 152 145 153 146 ?1 29 150 1364 0 153 146
 154 -.0452388917561714 -.0060003 .00926449816233071 18 153 460 155 156 149 0 15
0 ?1 29 154 1365 0 157 150 158 -.03066899139205855 -.0060003 .0345009455447808 1
8 157 530 36 159 160 50 154 ?1 29 158 1366 0 61 154 161 .02018015242422185 -.006
0003 -.03205618463557805 18 61 520 162 163 57 62 158 ?1 29 161 1367 0 66 158 164
 .02017988538206175 -.0060003 -.03130659538491815 18 66 516 165 166 62 67 161 ?1
 29 164 1368 0 71 161 167 -.02018095252048415 -.0060003 -.03130656486581415 18 7
1 512 168 169 67 72 164 ?1 29 167 1369 0 56 164 170 -.0201811833212082 -.0060003
 -.0320570162811622 18 56 524 171 172 52 57 167 ?1 29 170 1370 0 81 167 173 -.01
76476093832199 -.0060003 .0334615869388238 18 81 504 174 175 77 82 170 ?1 29 173
 1371 0 86 170 176 -.0378277355418388 -.0060003 -.00149229909201709 18 86 500 35
 177 82 87 173 ?1 29 176 1372 0 91 173 178 -.03717817837688365 -.0060003 -.00186
7311762039345 18 91 496 179 180 87 92 176 ?1 29 178 1373 0 76 176 181 -.01699805
22182647 -.0060003 .03308657581859985 18 76 508 182 183 72 77 178 ?1 29 181 1374
 0 100 178 184 .0169952035271462 -.0060003 .0330860531789437 18 100 488 185 186
 96 101 181 ?1 29 184 1375 0 105 181 24 .0371764112065132 -.0060003 -.0018670021
60035085 18 105 484 187 188 101 106 184 ?1 29 24 1376 0 110 184 9 .0378257013293
0845 -.0060003 -.001492425698612558 18 110 480 189 190 106 111 24 ?1 81 1 189 15
66 34 110 0 0 103 108 191 17 190 0 192 193 194 110 104 195 0 196 -15 255 192 828
 0 194 197 0 17 193 0 192 109 190 23 196 198 0 0 +17 194 0 192 190 109 101 199 2
00 0 201 -17 104 0 202 203 204 101 190 195 0 194 +16 195 46 205 ?104 206 207 208
 0 0 1 17 196 0 209 210 211 110 193 198 0 204 -15 209 806 0 211 19 212 17 210 0
 209 213 196 105 204 207 0 214 -17 211 0 209 196 213 23 215 216 0 193 -16 198 40
 217 ?193 218 219 220 0 0 1 17 204 0 202 104 188 110 210 207 0 0 +15 202 831 0 2
03 221 0 17 188 0 202 204 203 105 99 222 0 210 -16 207 44 223 ?204 195 218 224 0
 0 1 81 1 223 1647 34 207 0 0 225 226 227 16 218 42 228 ?109 207 198 229 0 0 1 3
1 224 1142 0 207 230 220 0 +.0375010562679108 -.0060003 -.00167971392932382 0 -1
 0 0 0 -1 .0003747950069742535 30 255 230 1141 0 206 231 224 0 +.027085807366829
7 -.0060003 .01560952550945435 .500019544259026 0 -.866014119607178 30 220 1143
 0 198 224 22 0 +.02773534545734485 -.0060003 .0159845329340056 -.50000108151009
3 0 .866024779373395 31 22 1144 0 216 220 8 0 +.0173201875960839 -.0060003 .0332
736148070696 0 -1 0 0 0 -1 .000375225277960248 16 216 52 232 ?215 233 222 22 0 0
 1 81 1 232 1645 34 216 0 0 234 225 235 17 215 0 236 95 237 100 211 216 0 213 +1
6 233 54 238 ?95 239 216 240 0 0 1 16 222 50 241 ?99 216 206 242 0 0 1 81 1 241
 1610 34 222 0 0 238 205 243 17 99 0 244 245 214 96 188 222 0 203 +16 206 48 246
 ?214 222 195 230 0 0 1 30 242 1044 0 222 208 240 0 +.0371764112065132 -.0060003
 -.001867002160035085 0 1 0 30 208 1043 0 195 229 242 0 +.03782570132930845 -.00
60003 -.001492425698612558 0 1 0 30 240 1045 0 233 242 247 0 +.0169952035271462
 -.0060003 .0330860531789437 0 1 0 30 247 1046 0 248 240 249 0 +-.01699805221826
47 -.0060003 .03308657581859985 0 1 0 16 248 58 250 ?90 251 239 247 0 0 1 30 249
 1047 0 252 247 253 0 +-.03717817837688365 -.0060003 -.001867311762039345 0 1 0
 16 252 62 254 ?85 255 251 249 0 0 1 30 253 1048 0 256 249 257 0 +-.037827735541
8388 -.0060003 -.00149229909201709 0 1 0 16 256 66 258 ?80 259 255 253 0 0 1 30
 257 1049 0 260 253 261 0 +-.0176476093832199 -.0060003 .0334615869388238 0 1 0
 16 260 70 262 ?75 263 259 257 0 0 1 30 261 1050 0 264 257 265 0 +-.020181183321
2082 -.0060003 -.0320570162811622 0 1 0 16 264 74 266 ?70 267 263 261 0 0 1 30 2
65 1051 0 268 261 269 0 +-.02018095252048415 -.0060003 -.03130656486581415 0 1 0
 16 268 78 270 ?65 271 267 265 0 0 1 30 269 1052 0 272 265 273 0 +.0201798853820
6175 -.0060003 -.03130659538491815 0 1 0 16 272 82 274 ?60 275 271 269 0 0 1 30
 273 1053 0 276 269 277 0 +.02018015242422185 -.0060003 -.03205618463557805 0 1
 0 16 276 86 278 ?55 279 275 273 0 0 1 30 277 1054 0 280 273 281 0 +-.0306689913
9205855 -.0060003 .0345009455447808 0 1 0 16 280 104 282 ?43 283 42 277 0 0 1 30
 281 1055 0 284 277 285 0 +-.0452388917561714 -.0060003 .00926449816233071 0 1 0
 16 284 108 286 ?287 288 283 281 0 0 1 30 285 1056 0 289 281 290 0 +-.0429085826
806251 -.0060003 .003300123916353325 0 1 0 16 289 112 291 ?292 293 288 285 0 0 1
 30 290 1057 0 294 285 295 0 +-.0185716858886902 -.0060003 -.0388537275596961 0
 1 0 16 294 116 296 ?297 298 293 290 0 0 1 30 295 1058 0 299 290 300 0 +-.014571
48588869014 -.0060003 -.04385397755969615 0 1 0 16 299 120 301 ?302 303 298 295
 0 0 1 30 300 1059 0 304 295 305 0 +.01457222891462408 -.0060003 -.0438539775596
9615 0 1 0 16 304 124 306 ?307 308 303 300 0 0 1 30 305 1060 0 309 300 310 0 +.0
185724289146241 -.0060003 -.0388537275596961 0 1 0 16 309 128 311 ?312 313 308 3
05 0 0 1 30 310 1061 0 314 305 315 0 +.04290791038311085 -.0060003 .003299949385
22727 0 1 0 16 314 132 316 ?317 318 313 310 0 0 1 30 315 1062 0 319 310 320 0 +.
0452381622353371 -.0060003 .00926434556681069 0 1 0 16 319 136 321 ?322 323 318
 315 0 0 1 30 320 1063 0 324 315 325 0 +.03066608547761995 -.0060003 .0345040012
700692 0 1 0 16 324 140 326 ?327 328 323 320 0 0 1 30 325 1064 0 329 320 330 0 +
.0243356450700577 -.0060003 .03546816080376065 0 1 0 16 329 144 331 ?332 333 328
 325 0 0 1 30 330 1065 0 334 325 335 0 +-.0243385586142723 -.0060003 .0354651661
1668025 0 1 0 16 334 148 336 ?337 338 333 330 0 0 1 31 335 1066 0 328 330 339 0
 +-591070529641166e-21 0 .02139596632572125 0 -1 0 0 0 -1 .0281119022287392 16 3
28 142 340 ?45 329 324 335 0 0 1 31 339 1067 0 323 335 341 0 +.0271053000133207
 0 .0323888943458029 0 -1 0 0 0 -1 .00414160239808755 16 323 138 226 ?342 324 31
9 339 0 0 1 30 341 1068 0 338 339 343 0 +.03795212385647855 0 .02188417341843995
 .499998835356684 0 -.866026076190527 16 338 150 344 ?345 346 334 341 0 0 1 31 3
43 1069 0 313 341 347 0 +.04159855133985395 0 .00724891309782411 0 -1 0 0 0 -1 .
00416037684682111 16 313 130 348 ?349 314 309 343 0 0 1 31 347 1070 0 308 343 35
0 0 +.018552346718484 0 -.01074081155950014 0 -1 0 0 0 -1 .02811292317295865 16
 308 126 351 ?352 309 304 347 0 0 1 31 350 1071 0 303 347 353 0 +.01449784834522
57 0 -.0396942681041774 0 -1 0 0 0 -1 .004160374409044915 16 303 122 354 ?355 30
4 299 350 0 0 1 30 353 1072 0 298 350 356 0 +3715129669662505e-22 0 -.0438539775
5969615 1 0 0 16 298 118 357 ?358 299 294 353 0 0 1 31 356 1073 0 293 353 359 0
 +-.01449710531929174 0 -.0396942681041774 0 -1 0 0 0 -1 .00416037440904496 16 2
93 114 360 ?361 294 289 356 0 0 1 31 359 1074 0 288 356 362 0 +-.018564248086935
8 0 -.01074723571161702 0 -1 0 0 0 -1 .02810649283220925 16 288 110 363 ?364 289
 284 359 0 0 1 31 362 1075 0 283 359 365 0 +-.0415992653577003 0 .00724909883574
115 0 -1 0 0 0 -1 .004160374354077405 16 283 106 366 ?367 284 280 362 0 0 1 30 3
65 1076 0 42 362 368 0 +-.03795394157411495 0 .02188272185355575 -.4999904944524
09 0 -.866030891745344 16 42 102 369 ?41 280 370 365 0 0 1 31 368 1077 0 333 365
 371 0 +-.02710374382435235 0 .0323567164222006 0 -1 0 0 0 -1 .00416037363095624
5 16 333 146 372 ?373 334 329 368 0 0 1 31 371 1078 0 346 368 374 0 +17106390456
8553e-19 0 722746568765545e-21 0 -1 0 0 0 -1 .00500025006552687 16 346 152 375 ?
376 377 338 371 0 0 1 31 374 1079 0 377 371 378 0 +.00215620213747693 0 .0325795
717050523 0 -1 0 0 0 -1 .00700034969044419 16 377 154 379 ?380 381 346 374 0 0 1
 31 378 1080 0 382 374 29 0 +-.01549588441627625 0 .0261495111144105 0 -1 0 0 0
 -1 .001200060057417954 16 382 312 383 ?384 28 385 378 0 0 1 31 29 1081 0 11 378
 386 0 +.000366586338161327 0 .0176489975870562 0 -1 0 0 0 -1 .00120005986318795
 31 386 1082 0 381 29 387 0 +.03535391468207335 0 .0203841022186563 0 -1 0 0 0 -
1 .001500074221657475 16 381 186 388 ?389 390 377 386 0 0 1 31 387 1083 0 390 38
6 391 0 +-.03535571751303615 0 .0203826748413161 0 -1 0 0 0 -1 .0015000755905121
6 16 390 188 392 ?393 394 381 387 0 0 1 31 391 1084 0 395 387 396 0 +-.015467773
4308016 0 -.00850702571200007 0 -1 0 0 0 -1 .001200060176533304 16 395 306 397 ?
398 385 399 391 0 0 1 31 396 1085 0 394 391 400 0 +.0271642515998141 0 -.0181882
127130589 0 -1 0 0 0 -1 .00700035032869148 16 394 190 401 ?402 403 390 396 0 0 1
 31 400 1086 0 404 396 405 0 +.01510118709264025 0 -.00914197187505611 0 -1 0 0
 0 -1 .001200059738862422 16 404 8 406 ?407 408 409 400 0 0 1 31 405 1087 0 410
 400 411 0 +.03039408312976115 0 .0003450740013973885 0 -1 0 0 0 -1 .00120005977
0618198 16 410 14 412 ?413 414 408 405 0 0 1 31 411 1088 0 415 405 416 0 +-.0148
981987134849 0 -.0264945851158079 0 -1 0 0 0 -1 .001200060043061666 16 415 300 4
17 ?418 399 419 411 0 0 1 31 416 1089 0 403 411 420 0 +371058882474992e-21 0 -.0
408538274404988 0 -1 0 0 0 -1 .00150007545416088 16 403 224 421 ?422 423 394 416
 0 0 1 31 420 1090 0 423 416 424 0 +-.028602155648822 0 -.02884889575437155 0 -1
 0 0 0 -1 .001500075 16 423 226 425 ?426 427 403 420 0 0 1 31 424 1091 0 427 420
 428 0 +.0392849544188258 0 -.01034574551769066 0 -1 0 0 0 -1 .001500075 16 427
 228 429 ?430 431 423 424 0 0 1 31 428 1092 0 431 424 432 0 +-.01068279877000376
 0 .0391946412720622 0 -1 0 0 0 -1 .001500075 16 431 230 433 ?434 435 427 428 0
 0 1 31 432 1093 0 436 428 437 0 +.0201800189031418 0 -.0316813900102481 0 -1 0
 0 0 -1 .000374794649113487 16 436 234 438 ?439 440 435 432 0 0 1 30 437 1094 0
 440 432 441 0 +-533569211183056e-21 0 -.03130658012536615 -.999999999999714 0 7
56156353438589e-21 16 440 236 442 ?443 444 436 437 0 0 1 31 441 1095 0 444 437 4
45 0 +-.02018038443287665 0 -.0316817907836862 0 -1 0 0 0 -1 .000375226347918912
 16 444 238 446 ?447 448 440 441 0 0 1 30 445 1096 0 435 441 449 0 +-51544849318
0514e-21 0 -.03205660045837015 .999999999787717 0 206050064644065e-19 16 435 232
 450 ?451 436 431 445 0 0 1 30 449 1097 0 452 445 453 0 +-.02773767246252935 0 .
01598464392340335 -.499990535072633 0 -.86603086829384 16 452 242 454 ?455 456 4
48 449 0 0 1 31 453 1098 0 456 449 457 0 +-.037502957061814 0 -.0016798056044860
7 0 -1 0 0 0 -1 .0003750196705580765 16 456 244 458 ?459 460 452 453 0 0 1 30 45
7 1099 0 460 453 461 0 +-.0270881152975742 0 .01560963202828025 .499990518445851
 0 .866030877893074 16 460 246 462 ?463 464 456 457 0 0 1 31 461 1100 0 448 457
 465 0 +-.0173228308007423 0 .0332740813787118 0 -1 0 0 0 -1 .000375019283116314
 16 448 240 466 ?467 452 444 461 0 0 1 30 465 1101 0 468 461 469 0 +.02708580736
68297 0 .01560952550945435 .500019544259026 0 -.866014119607178 16 468 250 470 ?
471 472 464 465 0 0 1 31 469 1102 0 472 465 473 0 +.0375010562679108 0 -.0016797
1392932382 0 -1 0 0 0 -1 .0003747950069742535 16 472 252 225 ?201 200 468 469 0
 0 1 30 473 1103 0 200 469 474 0 +.02773534545734485 0 .0159845329340056 -.50000
1081510093 0 .866024779373395 16 200 254 475 ?199 21 472 473 0 0 1 31 474 1104 0
 464 473 476 0 +.0173201875960839 0 .0332736148070696 0 -1 0 0 0 -1 .00037522527
7960248 16 464 248 234 ?477 468 460 474 0 0 1 31 476 1105 0 219 474 478 0 +-5910
70529641166e-21 -.0060003 .02139596632572125 0 -1 0 0 0 -1 .0281119022287392 16
 219 38 479 ?114 198 480 476 0 0 1 31 478 1106 0 480 476 481 0 +.027105300013320
7 -.0060003 .0323888943458029 0 -1 0 0 0 -1 .00414160239808755 16 480 36 482 ?11
8 219 483 478 0 0 1 30 481 1107 0 318 478 484 0 +.03795212385647855 -.0060003 .0
2188417341843995 .499998835356684 0 -.866026076190527 16 318 134 485 ?486 319 31
4 481 0 0 1 31 484 1108 0 483 481 487 0 +.04159855133985395 -.0060003 .007248913
09782411 0 -1 0 0 0 -1 .00416037684682111 16 483 34 488 ?128 480 489 484 0 0 1 3
1 487 1109 0 489 484 490 0 +.018552346718484 -.0060003 -.01074081155950014 0 -1
 0 0 0 -1 .02811292317295865 16 489 32 491 ?132 483 492 487 0 0 1 31 490 1110 0
 492 487 493 0 +.0144978483452257 -.0060003 -.0396942681041774 0 -1 0 0 0 -1 .00
4160374409044915 16 492 30 494 ?136 489 495 490 0 0 1 30 493 1111 0 495 490 496
 0 +3715129669662505e-22 -.0060003 -.04385397755969615 1 0 0 16 495 28 497 ?140
 492 498 493 0 0 1 31 496 1112 0 498 493 499 0 +-.01449710531929174 -.0060003 -.
0396942681041774 0 -1 0 0 0 -1 .00416037440904496 16 498 26 500 ?144 495 501 496
 0 0 1 31 499 1113 0 501 496 502 0 +-.0185642480869358 -.0060003 -.0107472357116
1702 0 -1 0 0 0 -1 .02810649283220925 16 501 24 503 ?148 498 504 499 0 0 1 31 50
2 1114 0 504 499 505 0 +-.0415992653577003 -.0060003 .00724909883574115 0 -1 0 0
 0 -1 .004160374354077405 16 504 22 506 ?152 501 507 502 0 0 1 30 505 1115 0 507
 502 508 0 +-.03795394157411495 -.0060003 .02188272185355575 -.499990494452409 0
 -.866030891745344 16 507 20 509 ?156 504 414 505 0 0 1 31 508 1116 0 414 505 51
0 0 +-.02710374382435235 -.0060003 .0323567164222006 0 -1 0 0 0 -1 .004160373630
956245 16 414 18 511 ?512 507 410 508 0 0 1 31 510 1117 0 370 508 513 0 +1710639
04568553e-19 -.0060003 722746568765545e-21 0 -1 0 0 0 -1 .00500025006552687 16 3
70 100 514 ?515 42 516 510 0 0 1 31 513 1118 0 517 510 518 0 +.00215620213747693
 -.0060003 .0325795717050523 0 -1 0 0 0 -1 .00700034969044419 16 517 296 519 ?52
0 419 521 513 0 0 1 31 518 1119 0 385 513 522 0 +-.01549588441627625 -.0060003 .
0261495111144105 0 -1 0 0 0 -1 .001200060057417954 16 385 310 523 ?524 382 395 5
18 0 0 1 31 522 1120 0 28 518 525 0 +.000366586338161327 -.0060003 .017648997587
0562 0 -1 0 0 0 -1 .00120005986318795 16 28 316 526 ?527 11 382 522 0 0 1 31 525
 1121 0 516 522 528 0 +.03535391468207335 -.0060003 .0203841022186563 0 -1 0 0 0
 -1 .001500074221657475 16 516 98 529 ?530 370 531 525 0 0 1 31 528 1122 0 531 5
25 532 0 +-.03535571751303615 -.0060003 .0203826748413161 0 -1 0 0 0 -1 .0015000
7559051216 16 531 96 533 ?534 516 535 528 0 0 1 31 532 1123 0 399 528 536 0 +-.0
154677734308016 -.0060003 -.00850702571200007 0 -1 0 0 0 -1 .001200060176533304
 16 399 304 537 ?538 395 415 532 0 0 1 31 536 1124 0 539 532 540 0 +.02716425159
98141 -.0060003 -.0181882127130589 0 -1 0 0 0 -1 .00700035032869148 16 539 292 5
41 ?542 521 21 536 0 0 1 31 540 1125 0 409 536 543 0 +.01510118709264025 -.00600
03 -.00914197187505611 0 -1 0 0 0 -1 .001200059738862422 16 409 6 544 ?545 404 0
 540 0 0 1 31 543 1126 0 408 540 546 0 +.03039408312976115 -.0060003 .0003450740
013973885 0 -1 0 0 0 -1 .001200059770618198 16 408 12 547 ?548 410 404 543 0 0 1
 31 546 1127 0 419 543 549 0 +-.0148981987134849 -.0060003 -.0264945851158079 0
 -1 0 0 0 -1 .001200060043061666 16 419 298 550 ?551 415 517 546 0 0 1 31 549 11
28 0 521 546 552 0 +-.029127734900036 -.0060003 -.01456236486109554 0 -1 0 0 0 -
1 .00700034986601148 16 521 294 553 ?554 517 539 549 0 0 1 31 552 1129 0 535 549
 555 0 +371058882474992e-21 -.0060003 -.0408538274404988 0 -1 0 0 0 -1 .00150007
545416088 16 535 94 556 ?557 531 558 552 0 0 1 31 555 1130 0 558 552 559 0 +-.02
8602155648822 -.0060003 -.02884889575437155 0 -1 0 0 0 -1 .001500075 16 558 92 5
60 ?561 535 562 555 0 0 1 31 559 1131 0 562 555 563 0 +.0392849544188258 -.00600
03 -.01034574551769066 0 -1 0 0 0 -1 .001500075 16 562 90 564 ?565 558 279 559 0
 0 1 31 563 1132 0 279 559 566 0 +-.01068279877000376 -.0060003 .039194641272062
2 0 -1 0 0 0 -1 .001500075 16 279 88 567 ?568 562 276 563 0 0 1 31 566 1133 0 27
1 563 569 0 +.0201800189031418 -.0060003 -.0316813900102481 0 -1 0 0 0 -1 .00037
4794649113487 16 271 80 570 ?571 272 268 566 0 0 1 30 569 1134 0 267 566 572 0 +
-533569211183056e-21 -.0060003 -.03130658012536615 -.999999999999714 0 756156353
438589e-21 16 267 76 573 ?574 268 264 569 0 0 1 31 572 1135 0 263 569 575 0 +-.0
2018038443287665 -.0060003 -.0316817907836862 0 -1 0 0 0 -1 .000375226347918912
 16 263 72 576 ?577 264 260 572 0 0 1 30 575 1136 0 275 572 578 0 +-515448493180
514e-21 -.0060003 -.03205660045837015 .999999999787717 0 206050064644065e-19 16
 275 84 579 ?580 276 272 575 0 0 1 30 578 1137 0 255 575 581 0 +-.02773767246252
935 -.0060003 .01598464392340335 -.499990535072633 0 -.86603086829384 16 255 64
 582 ?583 256 252 578 0 0 1 31 581 1138 0 251 578 584 0 +-.037502957061814 -.006
0003 -.00167980560448607 0 -1 0 0 0 -1 .0003750196705580765 16 251 60 585 ?586 2
52 248 581 0 0 1 30 584 1139 0 239 581 231 0 +-.0270881152975742 -.0060003 .0156
0963202828025 .499990518445851 0 .866030877893074 16 239 56 587 ?588 248 233 584
 0 0 1 31 231 1140 0 259 584 230 0 +-.0173228308007423 -.0060003 .03327408137871
18 0 -1 0 0 0 -1 .000375019283116314 16 259 68 589 ?590 260 256 231 0 0 1 81 1 5
89 1695 34 259 0 0 466 458 591 17 590 0 592 75 183 81 593 259 0 594 +15 592 849
 0 595 596 0 17 75 0 592 595 590 72 175 260 0 467 +17 183 0 592 590 595 76 90 24
8 0 593 -17 593 0 212 597 594 76 590 259 0 588 -17 594 0 212 593 598 81 583 255
 0 0 -15 212 807 0 593 19 599 17 598 0 212 594 597 86 586 251 0 583 -17 583 0 60
0 80 175 86 594 255 0 0 +15 600 846 0 601 602 0 17 80 0 600 601 583 77 177 256 0
 603 +17 175 0 600 583 601 81 75 260 0 590 -17 601 0 600 175 80 72 455 452 0 0 -
17 455 0 604 459 467 77 601 452 0 0 +15 604 939 0 467 605 606 17 459 0 604 463 4
55 82 603 456 0 0 +17 467 0 604 455 463 72 595 448 0 601 +17 463 0 604 467 459 8
7 607 460 0 0 +17 595 0 592 183 75 87 467 448 0 463 -17 607 0 608 180 90 82 463
 460 0 459 -15 608 840 0 607 609 0 17 180 0 608 588 607 91 85 252 0 597 -17 90 0
 608 607 588 87 183 248 0 595 +17 588 0 608 90 180 76 597 239 0 0 +17 597 0 212
 598 593 91 588 239 0 586 -17 586 0 610 85 177 91 598 251 0 0 +15 610 843 0 603
 611 0 17 85 0 610 603 586 82 180 252 0 607 +17 177 0 610 586 603 86 80 256 0 59
8 -17 603 0 610 177 85 77 459 456 0 455 -14 255 611 841 612 ?602 609 610 6 613 +
0 0 602 609 25 81 1 612 1767 614 611 615 0 616 617 618 14 602 844 617 ?596 611 6
00 6 619 +0 0 596 611 25 14 609 838 616 ?611 620 608 6 621 +0 0 611 620 25 51 25
5 613 1006 0 611 621 619 0 --.037502957061814 -.0060003 -.00167980560448607 0 1
 0 .0003750196705580765 0 0 1 13 25 4 0 0 0 0 0 0 10 17 14 17 788 622 ?605 0 623
 6 624 +0 0 605 0 25 81 1 622 1758 614 17 625 0 0 626 627 14 605 792 626 ?628 17
 629 6 20 -0 0 628 17 25 15 623 790 0 545 17 630 51 624 1019 0 17 631 632 0 -.01
510118709264025 -.0060003 -.00914197187505611 0 1 0 .001200059738862422 0 0 1 51
 631 1018 0 628 633 624 0 -.03039408312976115 -.0060003 .0003450740013973885 0 1
 0 .001200059770618198 0 0 1 51 632 1020 0 634 624 635 0 -.0271642515998141 -.00
60003 -.0181882127130589 0 1 0 .00700035032869148 0 0 1 14 634 942 636 ?637 638
 639 6 632 +0 0 637 638 25 51 635 1021 0 640 632 641 0 --.0154677734308016 -.006
0003 -.00850702571200007 0 1 0 .001200060176533304 0 0 1 14 640 962 642 ?643 644
 645 6 635 +0 0 643 644 25 51 641 1022 0 646 635 647 0 --.03535571751303615 -.00
60003 .0203826748413161 0 1 0 .00150007559051216 0 0 1 14 646 878 648 ?649 650 6
51 6 641 +0 0 649 650 25 51 647 1023 0 649 641 652 0 -.03535391468207335 -.00600
03 .0203841022186563 0 1 0 .001500074221657475 0 0 1 14 649 882 653 ?654 646 655
 6 647 +0 0 654 646 25 51 652 1024 0 656 647 657 0 -.000366586338161327 -.006000
3 .0176489975870562 0 1 0 .00120005986318795 0 0 1 14 656 978 658 ?0 643 659 6 6
52 +0 0 0 643 25 51 657 1025 0 643 652 660 0 --.01549588441627625 -.0060003 .026
1495111144105 0 1 0 .001200060057417954 0 0 1 14 643 970 661 ?656 640 662 6 657
 +0 0 656 640 25 51 660 1026 0 663 657 664 0 -.00215620213747693 -.0060003 .0325
795717050523 0 1 0 .00700034969044419 0 0 1 14 663 950 665 ?644 637 666 6 660 +0
 0 644 637 25 51 664 1027 0 654 660 667 0 -171063904568553e-19 -.0060003 7227465
68765545e-21 0 1 0 .00500025006552687 0 0 1 14 654 886 668 ?669 649 670 6 664 +0
 0 669 649 25 51 667 1028 0 638 664 671 0 --.02710374382435235 -.0060003 .032356
7164222006 0 1 0 .004160373630956245 0 0 1 14 638 923 672 ?634 673 674 6 667 -0
 0 634 673 25 50 671 1029 0 669 667 675 0 +-.03795394157411495 -.0060003 .021882
72185355575 .866030891745344 0 -.499990494452409 -.49999049445241 0 -.8660308917
45344 14 669 890 676 ?677 654 678 6 671 -0 0 677 654 25 51 675 1030 0 677 671 67
9 0 --.0415992653577003 -.0060003 .00724909883574115 0 1 0 .004160374354077405 0
 0 1 14 677 893 680 ?681 669 682 6 675 -0 0 681 669 25 51 679 1031 0 681 675 683
 0 --.0185642480869358 -.0060003 -.01074723571161702 0 1 0 .02810649283220925 0
 0 1 14 681 896 684 ?685 677 686 6 679 -0 0 685 677 25 51 683 1032 0 685 679 687
 0 --.01449710531929174 -.0060003 -.0396942681041774 0 1 0 .00416037440904496 0
 0 1 14 685 899 688 ?689 681 690 6 683 -0 0 689 681 25 50 687 1033 0 689 683 691
 0 +3715129669662505e-22 -.0060003 -.04385397755969615 0 0 1 1 0 0 14 689 902 69
2 ?693 685 694 6 687 -0 0 693 685 25 51 691 1034 0 693 687 695 0 -.0144978483452
257 -.0060003 -.0396942681041774 0 1 0 .004160374409044915 0 0 1 14 693 905 696
 ?697 689 698 6 691 -0 0 697 689 25 51 695 1035 0 697 691 699 0 -.01855234671848
4 -.0060003 -.01074081155950014 0 1 0 .02811292317295865 0 0 1 14 697 908 700 ?7
01 693 702 6 695 -0 0 701 693 25 51 699 1036 0 701 695 703 0 -.04159855133985395
 -.0060003 .00724891309782411 0 1 0 .00416037684682111 0 0 1 14 701 911 704 ?705
 697 706 6 699 -0 0 705 697 25 50 703 1037 0 705 699 707 0 +.03795212385647855 -
.0060003 .02188417341843995 .866026076190527 0 .499998835356684 .499998835356684
 0 -.866026076190527 14 705 914 708 ?709 701 710 6 703 +0 0 709 701 25 51 707 10
38 0 709 703 711 0 -.0271053000133207 -.0060003 .0323888943458029 0 1 0 .0041416
0239808755 0 0 1 14 709 917 712 ?673 705 713 6 707 -0 0 673 705 25 51 711 1039 0
 673 707 20 0 --591070529641166e-21 -.0060003 .02139596632572125 0 1 0 .02811190
22287392 0 0 1 14 673 920 714 ?638 709 715 6 711 -0 0 638 709 25 50 20 1040 0 60
5 711 7 0 +-273551385120234e-20 0 .002826945497382165 0 -1 0 1 0 0 81 1 714 1791
 614 673 716 0 712 672 717 15 715 922 0 45 673 0 17 45 0 715 718 332 32 719 328
 0 337 +17 718 0 715 720 45 111 337 334 0 721 -17 332 0 715 45 720 722 723 329 0
 719 +17 719 0 38 724 39 722 45 328 0 0 -17 337 0 674 373 721 32 718 334 0 39 +1
5 674 925 0 373 638 0 17 373 0 674 725 337 12 39 333 0 0 +17 721 0 674 337 725 1
11 512 414 0 0 -17 39 0 38 719 31 32 373 333 0 0 -15 38 928 0 39 605 726 15 726
 929 0 376 605 727 17 376 0 726 376 376 0 728 346 0 0 +15 727 931 0 389 605 729
 17 389 0 727 389 389 0 730 381 0 0 +15 729 932 0 393 605 731 17 393 0 729 393 3
93 0 732 390 0 0 +15 731 934 0 422 605 733 17 422 0 731 422 422 0 734 403 0 0 +1
5 733 935 0 426 605 735 17 426 0 733 426 426 0 736 423 0 0 +15 735 936 0 430 605
 737 17 430 0 735 430 430 0 738 427 0 0 +15 737 937 0 434 605 739 17 434 0 737 4
34 434 0 740 431 0 0 +15 739 938 0 451 605 604 17 451 0 739 439 447 52 741 435 0
 742 +17 439 0 739 443 451 57 742 436 0 0 +17 447 0 739 451 443 67 743 444 0 0 +
17 741 0 744 172 55 67 451 435 0 447 -17 742 0 745 163 60 52 439 436 0 0 -15 745
 858 0 742 746 0 17 163 0 745 571 742 61 55 276 0 580 -17 60 0 745 742 571 57 16
6 272 0 747 +17 571 0 745 60 163 66 748 271 0 0 +17 166 0 749 574 747 66 60 272
 0 750 -17 747 0 749 166 65 57 443 440 0 439 -15 749 855 0 747 751 0 17 65 0 749
 747 574 62 169 268 0 743 +17 443 0 739 447 439 62 747 440 0 0 +17 574 0 749 65
 166 71 750 267 0 0 +17 169 0 752 577 743 71 65 268 0 753 -17 743 0 752 169 70 6
2 447 444 0 443 -15 752 852 0 743 754 0 17 70 0 752 743 577 67 172 264 0 741 +17
 577 0 752 70 169 56 753 263 0 0 +17 172 0 744 580 741 56 70 264 0 755 -15 744 8
61 0 741 756 0 17 580 0 744 55 172 61 755 275 0 748 +17 755 0 599 753 748 56 580
 275 0 577 -15 599 808 0 755 19 757 17 753 0 599 750 755 71 577 263 0 574 -17 74
8 0 599 755 750 61 571 271 0 0 -17 750 0 599 748 753 66 574 267 0 571 -14 19 804
 758 ?197 628 209 6 7 +0 0 197 628 25 15 757 809 0 759 19 760 17 759 0 757 759 7
59 0 568 279 0 0 -15 760 810 0 761 19 762 17 761 0 760 761 761 0 565 562 0 0 -15
 762 811 0 763 19 764 17 763 0 762 763 763 0 561 558 0 0 -15 764 812 0 765 19 76
6 17 765 0 764 765 765 0 557 535 0 0 -15 766 813 0 767 19 768 17 767 0 766 767 7
67 0 554 521 0 0 -15 768 814 0 769 19 770 17 769 0 768 769 769 0 551 419 0 0 -15
 770 815 0 771 19 772 17 771 0 770 771 771 0 548 408 0 0 -15 772 816 0 773 19 77
4 17 773 0 772 773 773 0 545 409 0 0 -15 774 817 0 775 19 776 17 775 0 774 775 7
75 0 542 539 0 0 -15 776 818 0 777 19 778 17 777 0 776 777 777 0 538 399 0 0 -15
 778 819 0 779 19 780 17 779 0 778 779 779 0 534 531 0 0 -15 780 820 0 781 19 78
2 17 781 0 780 781 781 0 530 516 0 0 -15 782 821 0 783 19 784 17 783 0 782 783 7
83 0 527 28 0 0 -15 784 822 0 785 19 786 17 785 0 784 785 785 0 524 385 0 0 -15
 786 823 0 787 19 788 17 787 0 786 787 787 0 520 517 0 0 -15 788 824 0 789 19 79
0 17 789 0 788 789 789 0 515 370 0 0 -15 790 825 0 512 19 0 17 512 0 790 156 114
 157 721 414 0 725 +17 156 0 790 152 512 153 159 507 0 791 +17 114 0 790 512 118
 111 720 219 0 718 +17 725 0 674 721 373 157 43 280 0 0 -17 43 0 678 41 159 12 7
25 280 0 373 +15 678 892 0 41 669 0 17 41 0 678 791 43 50 31 42 0 287 +17 159 0
 678 43 791 157 156 507 0 512 -17 791 0 678 159 41 153 287 284 0 792 -17 287 0 6
82 367 792 50 791 284 0 40 +17 792 0 682 287 793 153 152 504 0 0 -15 682 895 0 3
67 677 0 17 793 0 682 792 367 149 292 289 0 794 -17 152 0 790 148 156 149 792 50
4 0 793 +17 148 0 790 144 152 145 794 501 0 795 +17 144 0 790 140 148 141 796 49
8 0 797 +17 794 0 686 292 795 149 148 501 0 0 -17 795 0 686 794 364 145 297 294
 0 796 -15 686 898 0 364 681 0 17 364 0 686 795 292 798 799 288 0 297 +17 297 0
 690 361 796 798 795 294 0 800 +17 796 0 690 297 797 145 144 498 0 0 -15 690 901
 0 361 685 0 17 797 0 690 796 361 141 302 299 0 801 -17 361 0 690 797 297 802 80
0 293 0 302 +17 302 0 694 358 801 802 797 299 0 803 +17 801 0 694 302 804 141 14
0 495 0 0 -15 694 904 0 358 689 0 17 804 0 694 801 358 137 307 304 0 805 -17 140
 0 790 136 144 137 801 495 0 804 +17 136 0 790 132 140 133 805 492 0 806 +17 132
 0 790 128 136 129 807 489 0 808 +17 805 0 698 307 806 137 136 492 0 0 -17 806 0
 698 805 355 133 312 309 0 807 -15 698 907 0 355 693 0 17 355 0 698 806 307 809
 810 303 0 312 +17 312 0 702 352 807 809 806 309 0 811 +17 807 0 702 312 808 133
 132 489 0 0 -15 702 910 0 352 697 0 17 808 0 702 807 352 129 317 314 0 812 -17
 352 0 702 808 312 125 811 308 0 317 +17 317 0 706 349 812 125 808 314 0 813 +17
 812 0 706 317 814 129 128 483 0 0 -15 706 913 0 349 701 0 17 814 0 706 812 349
 119 322 319 0 486 -17 128 0 790 815 132 119 812 483 0 814 +17 815 0 790 118 128
 120 486 318 0 0 -17 118 0 790 114 815 115 816 480 0 723 +17 486 0 710 322 123 1
19 815 318 0 0 +15 710 916 0 817 705 0 17 322 0 710 817 486 124 814 319 0 349 +1
7 123 0 710 486 817 120 327 324 0 816 -17 817 0 710 123 322 46 345 338 0 0 -17 3
27 0 713 342 816 46 123 324 0 724 +17 816 0 713 327 723 120 118 480 0 815 -15 71
3 919 0 342 709 0 17 723 0 713 816 342 115 332 329 0 720 -17 342 0 713 723 327 7
22 724 323 0 332 +17 720 0 715 332 718 115 114 219 0 0 -18 722 548 818 342 46 12
4 819 ?1 17 724 0 38 345 719 46 342 323 0 817 -17 345 0 38 813 724 124 817 338 0
 0 +18 46 550 820 327 32 722 821 ?1 81 1 820 1569 34 46 0 0 822 122 823 29 821 1
332 0 46 819 824 .03066608547761995 0 .0345040012700692 29 819 1331 0 722 47 821
 .0243356450700577 0 .03546816080376065 29 824 1333 0 124 821 825 .0452381622353
371 0 .00926434556681069 18 124 546 826 322 722 120 824 ?1 29 825 1334 0 125 824
 827 .04290791038311085 0 .00329994938522727 18 125 542 828 352 120 809 825 ?1 2
9 827 1335 0 809 825 829 .0185724289146241 0 -.0388537275596961 18 809 540 830 3
55 125 831 827 ?1 29 829 1336 0 831 827 832 .01457222891462408 0 -.0438539775596
9615 18 831 538 833 358 809 802 829 ?1 29 832 1337 0 802 829 834 -.0145714858886
9014 0 -.04385397755969615 18 802 536 835 361 831 798 832 ?1 29 834 1338 0 798 8
32 51 -.0185716858886902 0 -.0388537275596961 18 798 534 836 364 802 160 834 ?1
 29 51 1339 0 160 834 48 -.0429085826806251 0 .003300123916353325 18 160 532 837
 367 798 157 51 ?1 81 1 837 1597 34 160 0 0 113 151 838 17 367 0 682 793 287 160
 40 283 0 292 +17 40 0 38 31 799 50 367 283 0 0 -17 292 0 686 364 794 160 793 28
9 0 799 +17 799 0 38 40 800 160 364 288 0 0 -17 800 0 38 799 803 798 361 293 0 0
 -17 803 0 38 800 810 802 358 298 0 0 -17 810 0 38 803 811 831 355 303 0 0 -17 3
58 0 694 804 302 831 803 298 0 307 +17 307 0 698 355 805 831 804 304 0 810 +17 8
11 0 38 810 813 809 352 308 0 0 -17 813 0 38 811 345 125 349 313 0 0 -17 349 0 7
06 814 317 124 813 313 0 345 +18 50 528 839 41 157 52 48 ?1 81 1 839 1593 34 50
 0 0 36 155 840 80 7 CCCCCDI12 legal_owners0 16 1 lCZ1 34 841 842 9000 0 0 0 0 3
 6 0 0 0 FFTFTFTTFFFFFFFF1 81 1 36 1592 34 157 0 0 30 839 843 81 1 155 1594 34 1
53 0 0 839 44 844 82 255 3 840 18 32 0 81 1 44 1595 34 32 0 0 155 113 845 82 3 8
44 18 33 0 81 1 113 1596 34 111 0 0 44 837 846 82 3 845 18 34 0 82 3 846 18 35 0
 82 3 843 18 31 0 79 255 9 842 BTI/DetId81 1 151 1598 34 149 0 0 837 836 847 82
 3 838 18 36 0 81 1 836 1599 34 798 0 0 151 147 848 82 3 847 18 37 0 81 1 147 16
00 34 145 0 0 836 64 849 82 3 848 18 38 0 81 1 64 1601 34 62 0 0 147 168 850 82
 3 849 18 39 0 81 1 168 1602 34 71 0 0 64 69 851 82 3 850 18 40 0 81 1 69 1603 3
4 67 0 0 168 171 852 82 3 851 18 41 0 81 1 171 1604 34 56 0 0 69 54 853 82 3 852
 18 42 0 81 1 54 1605 34 52 0 0 171 162 854 82 3 853 18 43 0 81 1 162 1606 34 61
 0 0 54 59 855 82 3 854 18 44 0 81 1 59 1607 34 57 0 0 162 165 856 82 3 855 18 4
5 0 81 1 165 1608 34 66 0 0 59 238 857 82 3 856 18 46 0 81 1 238 1609 34 233 0 0
 165 241 858 82 3 857 18 47 0 82 3 858 18 0 1 81 1 835 1579 34 802 0 0 135 143 8
59 81 1 135 1578 34 133 0 0 830 835 860 81 1 143 1580 34 141 0 0 835 833 861 82
 3 859 18 18 0 81 1 833 1581 34 831 0 0 143 139 862 82 3 861 18 19 0 81 1 139 15
82 34 137 0 0 833 84 863 82 3 862 18 20 0 81 1 84 1583 34 82 0 0 139 179 864 82
 3 863 18 21 0 81 1 179 1584 34 91 0 0 84 89 865 82 3 864 18 22 0 81 1 89 1585 3
4 87 0 0 179 182 866 82 3 865 18 23 0 81 1 182 1586 34 76 0 0 89 74 867 82 3 866
 18 24 0 81 1 74 1587 34 72 0 0 182 174 868 82 3 867 18 25 0 81 1 174 1588 34 81
 0 0 74 79 869 82 3 868 18 26 0 81 1 79 1589 34 77 0 0 174 35 870 82 3 869 18 27
 0 81 1 35 1590 34 86 0 0 79 30 871 82 3 870 18 28 0 82 3 871 18 29 0 81 1 830 1
577 34 809 0 0 127 135 872 82 3 860 18 17 0 81 1 127 1576 34 119 0 0 826 830 873
 82 3 872 18 16 0 81 1 826 1575 34 124 0 0 131 127 874 82 3 873 18 15 0 81 1 131
 1574 34 129 0 0 828 826 875 82 3 874 18 14 0 81 1 828 1573 34 125 0 0 117 131 8
76 82 3 875 18 13 0 81 1 117 1572 34 115 0 0 818 828 877 82 3 876 18 12 0 81 1 8
18 1571 34 722 0 0 122 117 878 82 3 877 18 11 0 81 1 122 1570 34 120 0 0 820 818
 879 82 3 878 18 10 0 82 3 879 18 9 0 29 47 1330 0 32 0 819 -.0243385586142723 0
 .03546516611668025 81 1 822 1568 34 23 0 0 108 820 880 82 3 823 18 8 0 18 23 49
2 822 237 92 96 9 ?1 81 1 108 1567 34 106 0 0 189 822 881 82 3 880 18 7 0 82 3 8
81 18 6 0 17 237 0 236 215 882 23 109 218 0 211 -15 236 837 0 882 620 0 17 882 0
 236 237 95 106 477 464 0 199 -17 109 0 192 194 193 106 237 218 0 882 +17 95 0 2
36 882 215 92 186 233 0 477 +17 477 0 606 471 199 92 882 464 0 245 +17 199 0 606
 477 201 106 194 200 0 0 +15 606 940 0 477 605 883 17 201 0 606 199 471 101 203
 472 0 0 +17 471 0 606 201 477 96 245 468 0 0 +17 203 0 202 188 104 96 201 472 0
 471 -17 245 0 244 186 99 92 471 468 0 0 -15 244 834 0 245 884 0 17 186 0 244 21
4 245 100 95 233 0 215 -17 214 0 244 99 186 105 213 206 0 0 +17 213 0 209 211 21
0 100 214 206 0 0 -14 884 832 885 ?620 221 244 6 886 +0 0 620 221 25 81 1 885 17
64 614 884 887 0 888 889 890 14 620 835 889 ?609 884 236 6 891 +0 0 609 884 25 1
4 221 829 888 ?884 197 202 6 892 +0 0 884 197 25 50 886 1003 0 884 892 893 0 +.0
270858073668297 -.0060003 .01560952550945435 .866014119607178 0 .500019544259026
 .500019544259026 0 -.866014119607178 51 892 1002 0 221 894 886 0 -.037501056267
9108 -.0060003 -.00167971392932382 0 1 0 .0003747950069742535 0 0 1 51 893 1004
 0 596 886 621 0 --.0173228308007423 -.0060003 .0332740813787118 0 1 0 .00037501
9283116314 0 0 1 14 596 847 895 ?754 602 592 6 893 +0 0 754 602 25 50 621 1005 0
 609 893 613 0 +-.0270881152975742 -.0060003 .01560963202828025 -.86603087789307
4 0 .499990518445851 .499990518445851 0 .866030877893074 81 1 895 1769 614 596 8
96 0 617 897 898 14 754 850 897 ?751 596 752 6 899 +0 0 751 596 25 81 1 897 1770
 614 754 900 0 895 901 902 14 751 853 901 ?746 754 749 6 903 +0 0 746 754 25 51
 899 1009 0 754 904 903 0 --.02018038443287665 -.0060003 -.0316817907836862 0 1
 0 .000375226347918912 0 0 1 50 904 1008 0 756 619 899 0 +-515448493180514e-21 -
.0060003 -.03205660045837015 -206050064644065e-19 0 .999999999787717 .9999999997
87717 0 206050064644065e-19 50 903 1010 0 751 899 905 0 +-533569211183056e-21 -.
0060003 -.03130658012536615 -756156353438589e-21 0 -.999999999999714 -.999999999
999714 0 756156353438589e-21 51 905 1011 0 746 903 906 0 -.0201800189031418 -.00
60003 -.0316813900102481 0 1 0 .000374794649113487 0 0 1 14 746 856 907 ?756 751
 745 6 905 +0 0 756 751 25 51 906 1012 0 908 905 909 0 --.01068279877000376 -.00
60003 .0391946412720622 0 1 0 .001500075 0 0 1 14 908 862 910 ?911 756 912 6 906
 +0 0 911 756 25 51 909 1013 0 911 906 913 0 -.0392849544188258 -.0060003 -.0103
4574551769066 0 1 0 .001500075 0 0 1 14 911 866 914 ?915 908 916 6 909 +0 0 915
 908 25 51 913 1014 0 915 909 917 0 --.028602155648822 -.0060003 -.0288488957543
7155 0 1 0 .001500075 0 0 1 14 915 870 918 ?650 911 919 6 913 +0 0 650 911 25 51
 917 1015 0 650 913 920 0 -371058882474992e-21 -.0060003 -.0408538274404988 0 1
 0 .00150007545416088 0 0 1 14 650 874 921 ?646 915 922 6 917 +0 0 646 915 25 51
 920 1016 0 637 917 633 0 --.029127734900036 -.0060003 -.01456236486109554 0 1 0
 .00700034986601148 0 0 1 14 637 946 923 ?663 634 924 6 920 +0 0 663 634 25 51 6
33 1017 0 644 920 631 0 --.0148981987134849 -.0060003 -.0264945851158079 0 1 0 .
001200060043061666 0 0 1 14 644 954 925 ?640 663 926 6 633 +0 0 640 663 25 81 1
 925 1796 614 644 927 0 665 642 928 15 926 956 0 551 644 929 17 551 0 926 551 55
1 0 769 419 0 0 +15 929 957 0 930 644 0 17 930 0 929 930 930 0 418 415 0 0 -17 4
18 0 931 418 418 0 930 415 0 0 +15 931 960 0 418 605 0 80 1 614 0 932 8001 0 0 0
 0 3 5 0 0 0 FFFFTFTFFFFFFFFF2 81 1 927 1736 34 644 0 925 933 934 935 81 1 665 1
795 614 663 936 0 923 925 937 81 1 642 1797 614 640 938 0 925 661 939 83 255 3 9
28 .615686274509804 .811764705882353 .929411764705882 81 1 938 1732 34 640 0 642
 940 941 942 81 1 661 1798 614 643 943 0 642 658 944 83 3 939 .615686274509804 .
811764705882353 .929411764705882 81 1 943 1716 34 643 0 661 936 945 946 81 1 658
 1799 614 656 945 0 661 0 947 83 3 944 .615686274509804 .811764705882353 .929411
764705882 81 1 945 1717 34 656 0 658 943 887 948 83 3 947 .615686274509804 .8117
64705882353 .929411764705882 81 1 887 1718 34 884 0 885 945 949 950 82 3 948 18
 4 2 81 1 949 1719 34 197 0 951 887 952 953 82 3 950 18 5 2 14 197 826 951 ?221
 19 192 6 894 +0 0 221 19 25 81 1 951 1762 614 197 949 0 758 888 954 81 1 952 17
20 34 620 0 889 949 955 956 82 3 953 18 6 2 81 1 889 1765 614 620 952 0 885 616
 957 81 1 955 1721 34 221 0 888 952 958 959 82 3 956 18 7 2 81 1 888 1763 614 22
1 955 0 951 885 960 81 1 958 1722 34 709 0 712 955 961 962 82 3 959 18 8 2 81 1
 712 1790 614 709 958 0 708 714 963 81 1 961 1723 34 701 0 704 958 964 965 82 3
 962 18 9 2 81 1 704 1788 614 701 961 0 700 708 966 81 1 964 1724 34 697 0 700 9
61 967 968 82 3 965 18 10 2 81 1 700 1787 614 697 964 0 696 704 969 81 1 967 172
5 34 649 0 653 964 970 971 82 3 968 18 11 2 81 1 653 1779 614 649 967 0 648 668
 972 81 1 970 1726 34 705 0 708 967 973 974 82 3 971 18 12 2 81 1 708 1789 614 7
05 970 0 704 712 975 81 1 973 1727 34 689 0 692 970 976 977 82 3 974 18 13 2 81
 1 692 1785 614 689 973 0 688 696 978 81 1 976 1728 34 609 0 616 973 979 980 82
 3 977 18 14 2 81 1 616 1766 614 609 976 0 889 612 981 81 1 979 1729 34 602 0 61
7 976 982 983 82 3 980 18 15 2 81 1 617 1768 614 602 979 0 612 895 984 81 1 982
 1730 34 669 0 676 979 940 985 82 3 983 18 16 2 81 1 676 1781 614 669 982 0 668
 680 986 81 1 940 1731 34 646 0 648 982 938 987 82 3 985 18 17 2 81 1 648 1778 6
14 646 940 0 921 653 988 82 3 987 18 18 2 81 1 921 1777 614 650 989 0 918 648 99
0 83 3 988 .615686274509804 .811764705882353 .929411764705882 81 1 989 1738 34 6
50 0 921 934 991 992 81 1 918 1776 614 915 993 0 914 921 994 83 3 990 .615686274
509804 .811764705882353 .929411764705882 81 1 993 1751 34 915 0 918 995 996 997
 81 1 914 1775 614 911 996 0 910 918 998 83 3 994 .615686274509804 .811764705882
353 .929411764705882 81 1 996 1752 34 911 0 914 993 999 1000 81 1 910 1774 614 9
08 999 0 1001 914 1002 83 3 998 .615686274509804 .811764705882353 .9294117647058
82 81 1 999 1753 34 908 0 910 996 1003 1004 81 1 1001 1773 614 756 1005 0 907 91
0 1006 83 3 1002 .615686274509804 .811764705882353 .929411764705882 14 756 859 1
001 ?908 746 744 6 904 +0 0 908 746 25 81 1 1005 1748 34 756 0 1001 615 1007 100
8 81 1 907 1772 614 746 1009 0 901 1001 1010 83 3 1006 .615686274509804 .8117647
05882353 .929411764705882 81 1 1009 1745 34 746 0 907 900 896 1011 81 1 901 1771
 614 751 1007 0 897 907 1012 83 3 1010 .615686274509804 .811764705882353 .929411
764705882 81 1 1007 1749 34 751 0 901 1005 995 1013 83 3 1012 .615686274509804 .
811764705882353 .929411764705882 81 1 995 1750 34 693 0 696 1007 993 1014 82 3 1
013 18 36 2 81 1 696 1786 614 693 995 0 692 700 1015 82 3 1014 18 37 2 83 3 1015
 .615686274509804 .811764705882353 .929411764705882 81 1 900 1744 34 754 0 897 1
016 1009 1017 81 1 896 1746 34 596 0 895 1009 615 1018 82 3 1011 18 32 2 81 1 61
5 1747 34 611 0 612 896 1005 1019 82 3 1018 18 33 2 82 3 1019 18 34 2 81 1 1016
 1743 34 677 0 680 1020 900 1021 82 3 1017 18 31 2 81 1 680 1782 614 677 1016 0
 676 684 1022 81 1 1020 1742 34 685 0 688 1023 1016 1024 82 3 1021 18 30 2 81 1
 688 1784 614 685 1020 0 684 692 1025 81 1 1023 1741 34 681 0 684 716 1020 1026
 82 3 1024 18 29 2 81 1 684 1783 614 681 1023 0 680 688 1027 81 1 716 1740 34 67
3 0 714 991 1023 1028 82 3 1026 18 28 2 81 1 991 1739 34 638 0 672 989 716 1029
 82 3 1028 18 27 2 81 1 672 1792 614 638 991 0 714 636 1030 82 3 1029 18 26 2 81
 1 636 1793 614 634 941 0 672 923 1031 83 3 1030 .615686274509804 .8117647058823
53 .929411764705882 81 1 941 1733 34 634 0 636 938 625 1032 81 1 923 1794 614 63
7 934 0 636 665 1033 83 3 1031 .615686274509804 .811764705882353 .92941176470588
2 81 1 934 1737 34 637 0 923 927 989 1034 83 3 1033 .615686274509804 .8117647058
82353 .929411764705882 82 3 1034 18 24 2 81 1 625 1734 34 17 0 622 941 933 1035
 82 3 1032 18 20 2 81 1 933 1735 34 628 0 1036 625 927 1037 82 3 1035 18 21 2 14
 628 796 1036 ?19 605 1038 6 631 +0 0 19 605 25 81 1 1036 1760 614 628 933 0 626
 758 1039 82 3 1037 18 22 2 81 1 626 1759 614 605 1003 0 622 1036 1040 81 1 758
 1761 614 19 1041 0 1036 951 1042 83 3 1039 .615686274509804 .811764705882353 .9
29411764705882 81 1 1041 1714 34 19 0 758 1043 936 1044 83 3 1042 .6156862745098
04 .811764705882353 .929411764705882 81 1 1043 1713 34 654 0 668 1045 1041 1046
 81 1 936 1715 34 663 0 665 1041 943 1047 82 3 1044 18 1 2 82 3 1047 18 2 2 81 1
 668 1780 614 654 1043 0 653 676 1048 81 1 1045 1712 34 21 0 0 401 1043 1049 82
 3 1046 18 0 2 16 21 286 1045 ?1050 539 200 8 0 0 1 81 1 401 1711 34 394 0 0 379
 1045 1051 82 3 1049 18 484 1 81 1 379 1710 34 377 0 0 567 401 1052 82 3 1051 18
 482 1 81 1 567 1709 34 279 0 0 433 379 1053 82 3 1052 18 481 1 81 1 433 1708 34
 431 0 0 564 567 1054 82 3 1053 18 100 1 81 1 564 1707 34 562 0 0 429 433 1055 8
2 3 1054 18 99 1 81 1 429 1706 34 427 0 0 560 564 1056 82 3 1055 18 98 1 81 1 56
0 1705 34 558 0 0 425 429 1057 82 3 1056 18 97 1 81 1 425 1704 34 423 0 0 494 56
0 1058 82 3 1057 18 96 1 81 1 494 1703 34 492 0 0 354 425 1059 82 3 1058 18 95 1
 81 1 354 1702 34 303 0 0 573 494 1060 82 3 1059 18 94 1 81 1 573 1701 34 267 0
 0 442 354 1061 82 3 1060 18 93 1 81 1 442 1700 34 440 0 0 579 573 1062 82 3 106
1 18 92 1 81 1 579 1699 34 275 0 0 450 442 1063 82 3 1062 18 91 1 81 1 450 1698
 34 435 0 0 585 579 1064 82 3 1063 18 90 1 81 1 585 1697 34 251 0 0 458 450 1065
 82 3 1064 18 89 1 81 1 458 1696 34 456 0 0 589 585 1066 82 3 1065 18 88 1 82 3
 1066 18 87 1 17 1050 0 1067 1050 1050 0 1068 21 0 0 +15 1067 1486 0 1050 605 10
69 17 1068 0 1070 1068 1068 0 1050 21 0 0 -15 1070 949 0 1068 637 0 15 1069 1429
 0 380 605 38 17 380 0 1069 380 380 0 1071 377 0 0 +17 1071 0 1072 1071 1071 0 3
80 377 0 0 -15 1072 953 0 1071 663 0 83 3 1048 .615686274509804 .811764705882353
 .929411764705882 81 1 1003 1754 34 605 0 626 999 0 1073 83 3 1040 .615686274509
804 .811764705882353 .929411764705882 82 3 1073 18 173 2 15 1038 798 0 548 628 1
074 17 548 0 1038 548 548 0 771 408 0 0 +15 1074 799 0 1075 628 0 17 1075 0 1074
 1075 1075 0 413 410 0 0 -17 413 0 1076 413 413 0 1075 410 0 0 +15 1076 802 0 41
3 605 1067 83 3 1027 .615686274509804 .811764705882353 .929411764705882 83 3 102
5 .615686274509804 .811764705882353 .929411764705882 83 3 1022 .615686274509804
 .811764705882353 .929411764705882 82 3 1008 18 35 2 82 3 1004 18 40 2 82 3 1000
 18 39 2 82 3 997 18 38 2 82 3 992 18 25 2 83 3 986 .615686274509804 .8117647058
82353 .929411764705882 83 3 984 .615686274509804 .811764705882353 .9294117647058
82 83 3 981 .615686274509804 .811764705882353 .929411764705882 83 3 978 .6156862
74509804 .811764705882353 .929411764705882 83 3 975 .615686274509804 .8117647058
82353 .929411764705882 83 3 972 .615686274509804 .811764705882353 .9294117647058
82 83 3 969 .615686274509804 .811764705882353 .929411764705882 83 3 966 .6156862
74509804 .811764705882353 .929411764705882 83 3 963 .615686274509804 .8117647058
82353 .929411764705882 83 3 960 .615686274509804 .811764705882353 .9294117647058
82 83 3 957 .615686274509804 .811764705882353 .929411764705882 83 3 954 .6156862
74509804 .811764705882353 .929411764705882 50 894 1001 0 197 891 892 0 +.0277353
4545734485 -.0060003 .0159845329340056 -.866024779373395 0 -.500001081510093 -.5
00001081510093 0 .866024779373395 51 891 1000 0 620 0 894 0 -.0173201875960839 -
.0060003 .0332736148070696 0 1 0 .000375225277960248 0 0 1 82 3 946 18 3 2 82 3
 942 18 19 2 83 3 937 .615686274509804 .811764705882353 .929411764705882 82 3 93
5 18 23 2 79 15 932 SDL/TYSA_COLOUR15 924 948 0 554 637 1070 17 554 0 924 554 55
4 0 767 521 0 0 +15 922 876 0 557 650 1077 17 557 0 922 557 557 0 765 535 0 0 +1
5 1077 877 0 734 650 0 17 734 0 1077 734 734 0 422 403 0 0 -15 919 872 0 561 915
 1078 17 561 0 919 561 561 0 763 558 0 0 +15 1078 873 0 736 915 0 17 736 0 1078
 736 736 0 426 423 0 0 -15 916 868 0 565 911 1079 17 565 0 916 565 565 0 761 562
 0 0 +15 1079 869 0 738 911 0 17 738 0 1079 738 738 0 430 427 0 0 -15 912 864 0
 568 908 1080 17 568 0 912 568 568 0 759 279 0 0 +15 1080 865 0 740 908 0 17 740
 0 1080 740 740 0 434 431 0 0 -50 619 1007 0 602 613 904 0 +-.02773767246252935
 -.0060003 .01598464392340335 .86603086829384 0 -.499990535072633 -.499990535072
633 0 -.86603086829384 83 3 902 .615686274509804 .811764705882353 .9294117647058
82 83 3 898 .615686274509804 .811764705882353 .929411764705882 83 3 890 .6156862
74509804 .811764705882353 .929411764705882 15 883 984 0 27 605 1081 17 27 0 883
 27 27 0 1082 11 0 0 +15 1081 976 0 384 605 1083 17 384 0 1081 384 384 0 1084 38
2 0 0 +15 1083 968 0 398 605 931 17 398 0 1083 398 398 0 1085 395 0 0 +17 1085 0
 1086 1085 1085 0 398 395 0 0 -15 1086 965 0 1085 640 0 17 1084 0 1087 1084 1084
 0 384 382 0 0 -15 1087 973 0 1084 643 0 17 1082 0 1088 1082 1082 0 27 11 0 0 -1
5 1088 981 0 1082 656 0 17 515 0 670 515 515 0 789 370 0 0 +15 670 888 0 515 654
 1089 15 1089 889 0 728 654 0 17 728 0 1089 728 728 0 376 346 0 0 -17 520 0 666
 520 520 0 787 517 0 0 +15 666 952 0 520 663 1072 17 524 0 662 524 524 0 785 385
 0 0 +15 662 972 0 524 643 1087 17 527 0 659 527 527 0 783 28 0 0 +15 659 980 0
 527 656 1088 17 530 0 655 530 530 0 781 516 0 0 +15 655 884 0 530 649 1090 15 1
090 885 0 730 649 0 17 730 0 1090 730 730 0 389 381 0 0 -17 534 0 651 534 534 0
 779 531 0 0 +15 651 880 0 534 646 1091 15 1091 881 0 732 646 0 17 732 0 1091 73
2 732 0 393 390 0 0 -17 538 0 645 538 538 0 777 399 0 0 +15 645 964 0 538 640 10
86 17 542 0 639 542 542 0 775 539 0 0 +15 639 944 0 542 634 1092 15 1092 945 0 1
093 634 0 17 1093 0 1092 1093 1093 0 402 394 0 0 -17 402 0 629 402 402 0 1093 39
4 0 0 +15 629 1535 0 402 605 1094 15 1094 794 0 407 605 1076 17 407 0 1094 407 4
07 0 1095 404 0 0 +17 1095 0 630 1095 1095 0 407 404 0 0 -15 630 791 0 1095 17 0
 17 545 0 623 545 545 0 773 409 0 0 +17 55 0 744 741 580 52 163 276 0 451 +83 3
 717 .615686274509804 .811764705882353 .929411764705882 83 3 627 .61568627450980
4 .811764705882353 .929411764705882 83 3 618 .615686274509804 .811764705882353 .
929411764705882 81 1 466 1694 34 448 0 0 570 589 1096 82 3 591 18 86 1 81 1 570
 1693 34 271 0 0 438 466 1097 82 3 1096 18 85 1 81 1 438 1692 34 436 0 0 576 570
 1098 82 3 1097 18 84 1 81 1 576 1691 34 263 0 0 446 438 1099 82 3 1098 18 83 1
 81 1 446 1690 34 444 0 0 506 576 1100 82 3 1099 18 82 1 81 1 506 1689 34 504 0
 0 366 446 1101 82 3 1100 18 81 1 81 1 366 1688 34 283 0 0 500 506 1102 82 3 110
1 18 80 1 81 1 500 1687 34 498 0 0 360 366 1103 82 3 1102 18 79 1 81 1 360 1686
 34 293 0 0 503 500 1104 82 3 1103 18 78 1 81 1 503 1685 34 501 0 0 363 360 1105
 82 3 1104 18 77 1 81 1 363 1684 34 288 0 0 479 503 1106 82 3 1105 18 76 1 81 1
 479 1683 34 219 0 0 340 363 1107 82 3 1106 18 75 1 81 1 340 1682 34 328 0 0 511
 479 1108 82 3 1107 18 74 1 81 1 511 1681 34 414 0 0 372 340 1109 82 3 1108 18 7
3 1 81 1 372 1680 34 333 0 0 556 511 1110 82 3 1109 18 72 1 81 1 556 1679 34 535
 0 0 421 372 1111 82 3 1110 18 71 1 81 1 421 1678 34 403 0 0 553 556 1112 82 3 1
111 18 70 1 81 1 553 1677 34 521 0 0 550 421 1113 82 3 1112 18 69 1 81 1 550 167
6 34 419 0 0 417 553 1114 82 3 1113 18 68 1 81 1 417 1675 34 415 0 0 547 550 111
5 82 3 1114 18 67 1 81 1 547 1674 34 408 0 0 412 417 1116 82 3 1115 18 66 1 81 1
 412 1673 34 410 0 0 544 547 1117 82 3 1116 18 65 1 81 1 544 1672 34 409 0 0 406
 412 1118 82 3 1117 18 64 1 81 1 406 1671 34 404 0 0 541 544 1119 82 3 1118 18 6
3 1 81 1 541 1670 34 539 0 0 537 406 1120 82 3 1119 18 62 1 81 1 537 1669 34 399
 0 0 397 541 1121 82 3 1120 18 61 1 81 1 397 1668 34 395 0 0 533 537 1122 82 3 1
121 18 60 1 81 1 533 1667 34 531 0 0 392 397 1123 82 3 1122 18 59 1 81 1 392 166
6 34 390 0 0 509 533 1124 82 3 1123 18 58 1 81 1 509 1665 34 507 0 0 369 392 112
5 82 3 1124 18 57 1 81 1 369 1664 34 42 0 0 582 509 1126 82 3 1125 18 56 1 81 1
 582 1663 34 255 0 0 454 369 1127 82 3 1126 18 55 1 81 1 454 1662 34 452 0 0 587
 582 1128 82 3 1127 18 54 1 81 1 587 1661 34 239 0 0 462 454 1129 82 3 1128 18 5
3 1 81 1 462 1660 34 460 0 0 497 587 1130 82 3 1129 18 52 1 81 1 497 1659 34 495
 0 0 357 462 1131 82 3 1130 18 51 1 81 1 357 1658 34 298 0 0 485 497 1132 82 3 1
131 18 50 1 81 1 485 1657 34 318 0 0 344 357 1133 82 3 1132 18 49 1 81 1 344 165
6 34 338 0 0 529 485 1134 82 3 1133 18 48 1 81 1 529 1655 34 516 0 0 388 344 113
5 82 3 1134 18 47 1 81 1 388 1654 34 381 0 0 491 529 1136 82 3 1135 18 46 1 81 1
 491 1653 34 489 0 0 351 388 1137 82 3 1136 18 45 1 81 1 351 1652 34 308 0 0 488
 491 1138 82 3 1137 18 44 1 81 1 488 1651 34 483 0 0 348 351 1139 82 3 1138 18 4
3 1 81 1 348 1650 34 313 0 0 482 488 1140 82 3 1139 18 42 1 81 1 482 1649 34 480
 0 0 226 348 1141 82 3 1140 18 41 1 81 1 226 1648 34 323 0 0 223 482 1142 82 3 1
141 18 40 1 82 3 1142 18 39 1 81 1 526 1639 34 28 0 0 26 470 1143 81 1 26 1638 3
4 11 0 0 523 526 1144 81 1 470 1640 34 468 0 0 526 246 1145 82 3 1143 18 30 1 81
 1 246 1641 34 206 0 0 470 475 1146 82 3 1145 18 31 1 81 1 475 1642 34 200 0 0 2
46 217 1147 82 3 1146 18 32 1 81 1 217 1643 34 198 0 0 475 234 1148 82 3 1147 18
 33 1 81 1 234 1644 34 464 0 0 217 232 1149 82 3 1148 18 34 1 82 3 1149 18 35 1
 81 1 523 1637 34 385 0 0 383 26 1150 82 3 1144 18 29 1 81 1 383 1636 34 382 0 0
 519 523 1151 82 3 1150 18 28 1 81 1 519 1635 34 517 0 0 514 383 1152 82 3 1151
 18 27 1 81 1 514 1634 34 370 0 0 375 519 1153 82 3 1152 18 26 1 81 1 375 1633 3
4 346 0 0 274 514 1154 82 3 1153 18 25 1 81 1 274 1632 34 272 0 0 278 375 1155 8
2 3 1154 18 24 1 81 1 278 1631 34 276 0 0 266 274 1156 82 3 1155 18 23 1 81 1 26
6 1630 34 264 0 0 270 278 1157 82 3 1156 18 22 1 81 1 270 1629 34 268 0 0 296 26
6 1158 82 3 1157 18 21 1 81 1 296 1628 34 294 0 0 291 270 1159 82 3 1158 18 20 1
 81 1 291 1627 34 289 0 0 336 296 1160 82 3 1159 18 19 1 81 1 336 1626 34 334 0
 0 286 291 1161 82 3 1160 18 18 1 81 1 286 1625 34 284 0 0 282 336 1162 82 3 116
1 18 17 1 81 1 282 1624 34 280 0 0 258 286 1163 82 3 1162 18 16 1 81 1 258 1623
 34 256 0 0 262 282 1164 82 3 1163 18 15 1 81 1 262 1622 34 260 0 0 250 258 1165
 82 3 1164 18 14 1 81 1 250 1621 34 248 0 0 254 262 1166 82 3 1165 18 13 1 81 1
 254 1620 34 252 0 0 306 250 1167 82 3 1166 18 12 1 81 1 306 1619 34 304 0 0 301
 254 1168 82 3 1167 18 11 1 81 1 301 1618 34 299 0 0 311 306 1169 82 3 1168 18 1
0 1 81 1 311 1617 34 309 0 0 321 301 1170 82 3 1169 18 9 1 81 1 321 1616 34 319
 0 0 316 311 1171 82 3 1170 18 8 1 81 1 316 1615 34 314 0 0 331 321 1172 82 3 11
71 18 7 1 81 1 331 1614 34 329 0 0 326 316 1173 82 3 1172 18 6 1 81 1 326 1613 3
4 324 0 0 228 331 1174 82 3 1173 18 5 1 81 1 228 1612 34 218 0 0 205 326 1175 82
 3 1174 18 4 1 81 1 205 1611 34 195 0 0 241 228 1176 82 3 1175 18 3 1 82 3 1176
 18 2 1 81 1 225 1646 34 472 0 0 232 223 1177 82 3 1177 18 37 1 30 229 1042 0 21
8 0 208 0 +.01764498958538135 -.0060003 .0334614915666238 0 1 0 82 3 243 18 1 1
 82 3 235 18 36 1 82 3 227 18 38 1 81 1 103 1565 34 101 0 0 187 189 1178 82 3 19
1 18 5 0 81 1 187 1564 34 105 0 0 98 103 1179 82 3 1178 18 4 0 81 1 98 1563 34 9
6 0 0 185 187 1180 82 3 1179 18 3 0 81 1 185 1562 34 100 0 0 94 98 1181 82 3 118
0 18 2 0 81 1 94 1561 34 92 0 0 1182 185 1183 82 3 1181 18 1 0 81 1 1182 1560 34
 1 0 1184 0 94 1185 82 3 1183 18 0 0 81 1 1184 1755 1186 1 1182 14 0 0 1187 82 3
 1185 17 0 3 80 1 1186 1188 1189 8038 0 0 0 0 0 0 0 0 0 TTTTTTTTTTTTTFTF10 81 1
 14 1756 1188 1 1184 2 0 0 1190 98 255 34 1187 69 110 100 112 108 97 116 101 32
 82 101 118 105 115 101 100 32 102 111 114 32 78 101 119 32 77 111 116 111 114 1
15 32 86 50 80 1 1188 1191 1192 8017 0 0 0 0 0 0 0 0 0 TTTTTTTTTTTTTFTF3 84 255
 34 1190 Endplate Revised for New Motors V279 13 1192 SDL/TYSA_NAME79 14 1189 SD
L/TYSA_UNAME82 3 37 18 30 0 19 18 1 0 1 0 10 6 0 S0 74 4 CI16 index_map_offset0
 0 1 dCCZ20 16 5 0 0 1003 1184 14 2 658 0 0 0 0 0 0 0 0 0 0 0 0 0 0 0 80 1 13 61
4 1193 8040 0 0 0 0 3 5 0 0 0 TTTFFFFFFFFFFFFF2 83 3 15 .615686274509804 .811764
705882353 .929411764705882 79 17 1193 SDL/TYSA_COLOUR_21 0 
