**ABCDEFGHIJKLMNOPQRSTUVWXYZabcdefghijklmnopqrstuvwxyz**************************
**PARASOLID !"#$%&'()*+,-./:;<=>?@[\]^_`{|}~0123456789**************************
**PART1;
MC=unknown;
MC_MODEL=unknown;
MC_ID=unknown;
OS=unknown;
OS_RELEASE=unknown;
FRU=Parasolid 35.1.246;
APPL=Onshape;
SITE=unknown;
USER=unknown;
FORMAT=text;
GUISE=transmit;
KEY=BTGapi::writeModels_.xmt;
FILE=BTGapi::writeModels_.xmt;
DATE=2024-02-28T15:35:45 (UTC);
**PART2;
SCH=SCH_3501246_35102;
USFLD_SIZE=0;
**PART3;
**END_OF_HEADER*****************************************************************
T51 : TRANSMIT FILE created by modeller version 350124623 SCH_3501246_35102_1300
6231 0 12 36 CCCI7 lattice222 0 CCCI4 mesh1006 0 I8 polyline1008 0 CCCCCCCDI5 ow
ner1040 0 CCCI16 boundary_lattice222 0 CCCI13 boundary_mesh1006 0 I17 boundary_p
olyline1008 0 CCCA16 index_map_offset0 0 1 dA9 index_map82 0 A17 node_id_index_m
ap82 0 A20 schema_embedding_map82 0 A5 child12 0 A14 lowest_node_id0 0 1 dA16 me
sh_offset_data206 0 Z1 957 2 3 0 0 0 0 0 0 0 1e3 1e-8 0 4 5 1 0 1 2 6 0 7 8 9 0
 0 10 11 12 0 0 0 0 0 0 0 81 255 1 2 933 13 1 14 0 0 0 15 70 11 CI9 list_type0 0
 1 uI10 notransmit0 0 1 lCCCDCCDI12 finger_index0 0 1 dI12 finger_block1012 0 CZ
3 0 4 T1 0 0 5 20 1 16 16 13 255 6 227 0 1 0 17 0 0 18 0 50 255 7 220 0 17 19 0
 0 +-.004445 -.1016 -.001688756756756755 -.663358995061685 0 -.74830130540495 -.
74830130540495 0 .663358995061685 31 255 8 821 0 20 21 0 0 --330390127702436e-33
 -.0154448127142059 .00127 0 0 -1 -1 0 0 .00115 29 255 9 350 0 12 22 0 -.00125 -
.0883202507952553 -.00337751351351351 19 9 CCCCCCI5 frame230 0 CA5 owner12 0 Z10
 88 0 1 18 0 23 0 V0 16 255 11 202 24 ?25 0 26 27 0 0 1 18 255 12 348 28 29 0 30
 9 ?1 81 1 28 737 31 12 0 0 32 33 34 17 255 29 0 35 36 37 12 38 39 0 40 +18 30 3
19 41 42 12 43 22 ?1 81 1 41 749 31 30 0 0 44 45 46 17 42 0 47 48 49 30 50 51 0
 52 +18 43 82 53 54 30 55 56 ?1 29 22 321 0 30 57 9 -.001249999999999972 -.01760
9876223667 -.00337751351351351 29 57 191 0 58 59 22 -.00635 0 0 18 58 160 60 61
 62 63 57 ?1 29 59 192 0 63 64 57 -.00635 0 .00127 18 63 164 65 66 58 67 59 ?1 2
9 64 193 0 67 68 59 .00635 0 .00127 18 67 168 69 70 63 71 64 ?1 29 68 194 0 71 7
2 64 .00635 0 0 18 71 172 73 74 67 75 68 ?1 29 72 195 0 75 76 68 .00254 0 -.0033
77513513513515 18 75 176 77 78 71 79 72 ?1 29 76 196 0 79 56 72 -.00254 0 -.0033
7751351351351 18 79 180 80 25 75 81 76 ?1 29 56 84 0 43 82 76 -.00635 -.1016 0 2
9 82 79 0 55 83 56 -.00635 -.1016 .00127 18 55 77 84 85 43 86 82 ?1 29 83 69 0 8
6 87 82 .00635 -.1016 .00127 18 86 67 88 89 55 90 83 ?1 29 87 64 0 90 91 83 .006
35 -.1016 0 18 90 62 92 93 86 94 87 ?1 29 91 59 0 94 95 87 .00254 -.1016 -.00337
7513513513515 18 94 57 96 97 90 62 91 ?1 29 95 49 0 62 98 91 -.00254 -.1016 -.00
337751351351351 18 62 47 99 100 94 58 95 ?1 29 98 700 0 101 102 95 -.0025 -.0154
448127142059 -.00337751351351351 18 101 610 103 104 105 106 98 ?1 29 102 702 0 1
06 107 98 .00125 -.017609876223667 -.00337751351351351 18 106 602 108 49 101 109
 102 ?1 29 107 703 0 109 110 102 .0025 -.0154448127142059 -.00337751351351351 18
 109 598 111 112 106 113 107 ?1 29 110 704 0 113 114 107 .00125 -.01327974920474
48 -.00337751351351351 18 113 594 115 116 109 117 110 ?1 29 114 705 0 117 118 11
0 -.00125 -.0132797492047448 -.00337751351351351 18 117 590 119 120 113 0 114 ?1
 29 118 706 0 121 122 114 -.0025 -.0154448127142059 -.00137751351351351 18 121 5
88 123 124 125 126 118 ?1 29 122 707 0 126 127 118 -.00125 -.017609876223667 -.0
0137751351351351 18 126 608 45 48 121 128 122 ?1 29 127 708 0 128 129 122 .00125
 -.017609876223667 -.00137751351351351 18 128 604 44 130 126 131 127 ?1 29 129 7
09 0 131 132 127 .0025 -.0154448127142059 -.00137751351351351 18 131 600 133 134
 128 135 129 ?1 29 132 710 0 135 136 129 .00125 -.0132797492047448 -.00137751351
351351 18 135 596 137 138 131 105 132 ?1 29 136 711 0 105 139 132 -.00125 -.0132
797492047448 -.00137751351351351 18 105 592 140 141 135 101 136 ?1 29 139 712 0
 142 143 136 -.00125 -.0839901237763331 -.00337751351351351 18 142 467 144 145 1
46 147 139 ?1 29 143 713 0 147 148 139 .00125 -.0839901237763331 -.0033775135135
1351 18 147 471 149 150 142 151 143 ?1 29 148 714 0 151 152 143 .0025 -.08615518
72857942 -.00337751351351351 18 151 475 153 154 147 155 148 ?1 29 152 715 0 155
 156 148 .00125 -.0883202507952553 -.00337751351351351 18 155 479 157 37 151 125
 152 ?1 29 156 717 0 125 158 152 -.0025 -.0861551872857942 -.00337751351351351 1
8 125 487 159 160 155 121 156 ?1 29 158 718 0 81 161 156 -.00125 -.0839901237763
331 -.00137751351351351 18 81 469 162 163 79 164 158 ?1 29 161 719 0 164 165 158
 .00125 -.0839901237763331 -.00137751351351351 18 164 473 166 167 81 168 161 ?1
 29 165 720 0 168 169 161 .0025 -.0861551872857942 -.00137751351351351 18 168 47
7 170 171 164 172 165 ?1 29 169 721 0 172 173 165 .00125 -.0883202507952553 -.00
137751351351351 18 172 481 32 174 168 175 169 ?1 29 173 722 0 175 176 169 -.0012
5 -.0883202507952553 -.00137751351351351 18 175 485 33 36 172 146 173 ?1 29 176
 723 0 146 0 173 -.0025 -.0861551872857942 -.00137751351351351 18 146 465 177 17
8 175 142 176 ?1 81 1 177 740 31 146 0 0 159 119 179 17 178 0 180 181 182 146 16
0 183 0 184 -15 255 180 512 0 182 185 0 17 181 0 180 40 178 175 184 186 0 0 -17
 182 0 180 178 40 125 187 188 0 189 +17 160 0 190 191 192 125 178 183 0 182 +16
 183 432 193 ?160 194 195 196 0 0 1 17 184 0 197 198 199 146 181 186 0 192 +15 1
97 516 0 198 200 0 17 198 0 197 201 184 81 192 195 0 0 +17 199 0 197 184 202 175
 203 204 0 181 +16 186 429 205 ?184 204 206 207 0 0 1 17 192 0 190 160 163 146 1
98 195 0 0 -15 190 492 0 191 208 0 17 163 0 190 192 191 81 145 209 0 210 -16 195
 399 211 ?198 183 212 213 0 0 1 81 1 211 782 31 195 0 0 205 214 215 16 212 405 2
16 ?201 195 217 218 0 0 1 30 255 213 694 0 195 218 219 0 +-.001875 -.08507265553
10636 -.00137751351351351 .5 .866025403784439 0 30 218 695 0 212 220 213 0 +0 -.
0839901237763331 -.00137751351351351 1 0 0 30 219 693 0 188 213 221 0 +-.001875
 -.0872377190405247 -.00337751351351351 -.5 .866025403784438 0 16 188 460 222 ?1
82 39 223 219 0 0 1 30 221 692 0 39 219 224 0 +0 -.0883202507952553 -.0033775135
1351351 -1 0 0 16 39 455 225 ?29 226 188 221 0 0 1 30 224 691 0 226 221 227 0 +.
001875 -.0872377190405247 -.00337751351351351 -.5 -.866025403784439 0 16 226 450
 228 ?229 230 39 224 0 0 1 30 227 690 0 230 224 231 0 +.001875 -.085072655531063
6 -.00337751351351351 .5 -.866025403784439 0 16 230 445 232 ?233 234 226 227 0 0
 1 30 231 689 0 234 227 235 0 +0 -.0839901237763331 -.00337751351351351 1 0 0 16
 234 440 236 ?237 206 230 231 0 0 1 30 235 688 0 206 231 238 0 +-.001875 -.08507
26555310636 -.00337751351351351 .5 .866025403784439 0 16 206 435 239 ?191 186 23
4 235 0 0 1 30 238 687 0 209 235 240 0 +-.00125 -.0839901237763331 -.00137751351
351351 0 0 -1 16 209 402 241 ?145 242 243 238 0 0 1 30 240 686 0 243 238 244 0 +
.00125 -.0839901237763331 -.00137751351351351 0 0 -1 16 243 408 245 ?150 209 246
 240 0 0 1 30 244 685 0 246 240 247 0 +.0025 -.0861551872857942 -.00137751351351
351 0 0 -1 16 246 414 248 ?154 243 249 244 0 0 1 30 247 684 0 249 244 250 0 +.00
125 -.0883202507952553 -.00137751351351351 0 0 -1 16 249 420 251 ?37 246 194 247
 0 0 1 30 250 683 0 194 247 196 0 +-.00125 -.0883202507952553 -.0013775135135135
1 0 0 -1 16 194 426 252 ?40 249 183 250 0 0 1 30 196 682 0 183 250 253 0 +-.0025
 -.0861551872857942 -.00137751351351351 0 0 -1 30 253 681 0 254 196 255 0 +-.001
875 -.01436228095947534 -.00137751351351351 .5 .866025403784439 0 16 254 522 256
 ?257 258 259 253 0 0 1 30 255 680 0 258 253 260 0 +0 -.0132797492047448 -.00137
751351351351 1 0 0 16 258 528 214 ?261 262 254 255 0 0 1 30 260 679 0 262 255 26
3 0 +.001875 -.01436228095947534 -.00137751351351351 .5 -.866025403784439 0 16 2
62 534 264 ?265 266 258 260 0 0 1 30 263 678 0 266 260 267 0 +.001875 -.01652734
446893645 -.00137751351351351 -.5 -.866025403784439 0 16 266 540 268 ?269 270 26
2 263 0 0 1 30 267 677 0 270 263 271 0 +-3144186300207965e-33 -.017609876223667
 -.00137751351351351 -1 0 0 16 270 546 272 ?273 274 266 267 0 0 1 30 271 676 0 2
74 267 275 0 +-.001875 -.01652734446893645 -.00137751351351351 -.5 .866025403784
438 0 16 274 552 276 ?277 278 270 271 0 0 1 30 275 675 0 279 271 280 0 +-.001875
 -.01436228095947534 -.00337751351351351 .5 .866025403784439 0 16 279 558 281 ?2
82 283 20 275 0 0 1 30 280 674 0 283 275 284 0 +0 -.0132797492047448 -.003377513
51351351 1 0 0 16 283 563 285 ?286 287 279 280 0 0 1 30 284 673 0 287 280 288 0
 +.001875 -.01436228095947534 -.00337751351351351 .5 -.866025403784439 0 16 287
 568 289 ?290 291 283 284 0 0 1 30 288 672 0 291 284 292 0 +.001875 -.0165273444
6893645 -.00337751351351351 -.5 -.866025403784439 0 16 291 573 293 ?294 51 287 2
88 0 0 1 30 292 671 0 51 288 295 0 +-3144186300207965e-33 -.017609876223667 -.00
337751351351351 -1 0 0 16 51 578 296 ?42 259 291 292 0 0 1 30 295 670 0 259 292
 297 0 +-.001875 -.01652734446893645 -.00337751351351351 -.5 .866025403784438 0
 16 259 583 298 ?299 254 51 295 0 0 1 30 297 669 0 278 295 300 0 +-.0025 -.01544
48127142059 -.00137751351351351 0 0 -1 16 278 555 301 ?104 302 274 297 0 0 1 30
 300 668 0 302 297 303 0 +-.00125 -.017609876223667 -.00137751351351351 0 0 -1 1
6 302 549 304 ?52 305 278 300 0 0 1 30 303 667 0 305 300 306 0 +.00125 -.0176098
76223667 -.00137751351351351 0 0 -1 16 305 543 307 ?49 308 302 303 0 0 1 30 306
 666 0 308 303 309 0 +.0025 -.0154448127142059 -.00137751351351351 0 0 -1 16 308
 537 310 ?112 311 305 306 0 0 1 30 309 665 0 311 306 312 0 +.00125 -.01327974920
47448 -.00137751351351351 0 0 -1 16 311 531 313 ?116 223 308 309 0 0 1 30 312 66
4 0 223 309 314 0 +-.00125 -.0132797492047448 -.00137751351351351 0 0 -1 16 223
 525 315 ?120 188 311 312 0 0 1 30 314 9 0 316 312 317 0 +-.004445 -.1016 -.0016
88756756756755 -.74830130540495 0 .663358995061685 16 316 7 318 ?319 320 321 314
 0 0 1 30 317 14 0 320 314 322 0 +-.00127 -.1016 -.00337751351351351 1 0 0 16 32
0 12 323 ?97 324 316 317 0 0 1 30 322 24 0 324 317 325 0 +.004445 -.1016 -.00168
8756756756755 .74830130540495 0 .663358995061685 16 324 22 326 ?93 327 320 322 0
 0 1 30 325 29 0 327 322 328 0 +.00635 -.1016 635e-6 0 0 1 16 327 27 329 ?89 330
 324 325 0 0 1 30 328 34 0 330 325 331 0 +.003175 -.1016 .00127 -1 0 0 16 330 32
 332 ?85 333 327 328 0 0 1 30 331 44 0 333 328 334 0 +-.00635 -.1016 635e-6 0 0
 1 16 333 42 335 ?336 337 330 331 0 0 1 30 334 190 0 242 331 338 0 +-.004445 0 -
.001688756756756755 -.74830130540495 0 .663358995061685 16 242 156 339 ?340 341
 209 334 0 0 1 30 338 189 0 341 334 342 0 +-.00127 0 -.00337751351351351 1 0 0 1
6 341 150 343 ?78 344 242 338 0 0 1 30 342 188 0 344 338 345 0 +.004445 0 -.0016
88756756756755 .74830130540495 0 .663358995061685 16 344 146 346 ?74 347 341 342
 0 0 1 30 345 187 0 347 342 348 0 +.00635 0 635e-6 0 0 1 16 347 142 349 ?70 350
 344 345 0 0 1 30 348 186 0 350 345 351 0 +.003175 0 .00127 -1 0 0 16 350 136 35
2 ?353 321 347 348 0 0 1 30 351 185 0 321 348 354 0 +-.00635 0 635e-6 0 0 1 16 3
21 132 355 ?356 316 350 351 0 0 1 30 354 221 0 337 351 357 0 +-.00635 -.1016 0 0
 1 0 16 337 197 358 ?61 359 333 354 0 0 1 30 357 222 0 359 354 360 0 +-.00635 -.
1016 .00127 0 1 0 16 359 198 361 ?66 362 337 357 0 0 1 30 360 223 0 362 357 363
 0 +.00635 -.1016 .00127 0 1 0 16 362 199 364 ?365 366 359 360 0 0 1 30 363 224
 0 366 360 367 0 +.00635 -.1016 0 0 1 0 16 366 200 368 ?369 26 362 363 0 0 1 30
 367 225 0 26 363 27 0 +.00254 -.1016 -.003377513513513515 0 1 0 16 26 201 370 ?
371 11 366 367 0 0 1 30 27 226 0 11 367 21 0 +-.00254 -.1016 -.00337751351351351
 0 1 0 31 21 814 0 372 27 8 0 --176494369046061e-31 -.0861551872857942 .00127 0
 0 -1 -1 0 0 .00115 16 372 884 373 ?374 20 375 21 0 0 1 81 1 373 923 31 372 0 0
 376 377 378 17 374 0 379 374 374 0 380 372 0 0 +16 20 854 376 ?381 279 372 8 0
 0 1 16 375 846 382 ?383 372 384 385 0 0 1 81 1 382 925 31 375 0 0 377 386 387 1
7 383 0 388 383 383 0 389 375 0 0 +16 384 876 377 ?390 375 0 391 0 0 1 31 385 91
7 0 375 0 391 0 +-330390127702436e-33 -.0154448127142059 -.00137751351351351 0 0
 1 1 0 0 .00115 31 391 915 0 384 385 207 0 +-176494369046061e-31 -.0861551872857
942 -.00137751351351351 0 0 1 1 0 0 .00115 30 207 699 0 186 391 392 0 +-.001875
 -.0872377190405247 -.00137751351351351 -.5 .866025403784438 0 30 392 698 0 204
 207 393 0 +0 -.0883202507952553 -.00137751351351351 -1 0 0 16 204 423 394 ?199
 395 186 392 0 0 1 30 393 697 0 395 392 220 0 +.001875 -.0872377190405247 -.0013
7751351351351 -.5 -.866025403784439 0 16 395 417 396 ?202 217 204 393 0 0 1 30 2
20 696 0 217 393 218 0 +.001875 -.0850726555310636 -.00137751351351351 .5 -.8660
25403784439 0 16 217 411 397 ?398 212 395 220 0 0 1 81 1 397 778 31 217 0 0 216
 396 399 17 398 0 197 202 201 168 400 217 0 401 +17 202 0 197 199 398 172 401 39
5 0 203 +17 201 0 197 398 198 164 210 212 0 400 +17 400 0 402 150 171 164 398 21
7 0 0 -17 401 0 403 154 174 168 202 395 0 0 -15 403 504 0 229 404 0 17 154 0 403
 229 401 151 171 246 0 233 +17 174 0 403 401 229 172 37 249 0 202 -17 229 0 403
 174 154 155 405 226 0 38 +17 37 0 35 29 203 155 174 249 0 229 +15 35 508 0 29 4
06 0 17 203 0 35 37 36 172 199 204 0 0 -17 36 0 35 203 29 175 40 194 0 199 -17 4
0 0 180 182 181 12 36 194 0 187 +17 187 0 407 38 189 12 182 188 0 0 -15 407 346
 0 408 409 410 17 38 0 407 405 187 155 29 39 0 0 -17 189 0 407 187 408 125 191 2
06 0 0 -17 408 0 407 189 411 142 237 234 0 0 -17 191 0 190 163 160 142 189 206 0
 408 +17 411 0 407 408 405 147 233 230 0 0 -17 237 0 412 167 145 147 408 234 0 4
11 +15 412 496 0 237 413 0 17 167 0 412 210 237 164 150 243 0 201 -17 145 0 412
 237 210 142 163 209 0 191 +17 210 0 412 145 167 81 201 212 0 198 -17 150 0 402
 233 400 147 167 243 0 237 +15 402 500 0 233 414 0 17 233 0 402 171 150 151 411
 230 0 405 +17 171 0 402 400 233 168 154 246 0 398 -17 405 0 407 411 38 151 229
 226 0 0 -14 255 414 497 415 ?404 413 402 6 416 -0 0 404 413 23 81 1 415 951 417
 414 418 0 419 420 421 14 404 501 420 ?406 414 403 6 422 -0 0 406 414 23 14 413
 493 419 ?414 208 412 6 423 -0 0 414 208 23 50 416 659 0 414 423 422 0 +.001875
 -.0850726555310636 -.00137751351351351 .866025403784439 .5 0 -.5 .8660254037844
39 0 13 23 89 0 0 0 0 0 0 10 17 14 17 214 424 ?409 0 425 6 7 +0 0 409 0 23 81 1
 424 934 417 17 426 0 0 427 428 14 409 212 427 ?429 17 407 6 19 -0 0 429 17 23 1
5 425 213 0 430 17 0 17 430 0 425 100 61 79 340 242 0 0 -17 100 0 425 319 430 62
 25 11 0 431 -17 61 0 425 430 319 58 54 337 0 340 +17 340 0 432 356 433 58 430 2
42 0 434 +15 432 131 0 340 435 0 17 356 0 432 436 340 63 434 321 0 0 +17 433 0 4
32 340 437 79 78 341 0 430 -17 434 0 438 54 66 58 356 321 0 0 -15 438 203 0 434
 439 0 17 54 0 438 336 434 43 61 337 0 319 -17 66 0 438 434 336 63 440 359 0 353
 +17 336 0 438 66 54 55 441 333 0 0 +17 440 0 442 443 353 55 66 359 0 336 -17 35
3 0 442 440 365 63 436 350 0 356 +15 442 205 0 353 444 0 17 365 0 442 353 443 67
 445 362 0 436 +17 436 0 432 446 356 67 353 350 0 0 -17 446 0 432 437 436 71 70
 347 0 0 -17 437 0 432 433 446 75 74 344 0 0 -17 70 0 447 445 369 67 446 347 0 3
65 +15 447 207 0 70 448 0 17 445 0 447 449 70 86 365 362 0 443 -17 369 0 447 70
 449 71 450 366 0 446 +17 449 0 447 369 445 90 89 327 0 0 -17 450 0 451 452 74 9
0 369 366 0 449 -15 451 209 0 74 429 0 17 452 0 451 371 450 94 93 324 0 0 -17 74
 0 451 450 371 71 437 344 0 369 +17 371 0 451 74 452 75 453 26 0 437 +17 453 0 4
54 431 78 94 371 26 0 452 -15 454 211 0 78 409 0 17 431 0 454 25 453 62 97 320 0
 455 -17 78 0 454 453 25 75 433 341 0 371 +17 25 0 454 78 431 79 100 11 0 433 +1
7 97 0 456 93 455 94 431 320 0 453 +17 455 0 456 97 441 62 319 316 0 0 -15 456 6
 0 455 457 0 17 441 0 456 455 85 43 336 333 0 0 -17 319 0 425 61 100 43 455 316
 0 441 +17 85 0 456 441 89 55 443 330 0 440 +17 89 0 456 85 93 86 449 327 0 445
 +17 443 0 442 365 440 86 85 330 0 0 -17 93 0 456 89 97 90 452 324 0 450 +14 457
 1 458 ?435 439 456 6 459 +0 0 435 439 23 81 1 458 940 417 457 460 0 461 462 463
 14 435 120 462 ?464 457 432 6 465 -0 0 464 457 23 14 439 204 461 ?457 444 438 6
 466 +0 0 457 444 23 50 459 3 0 457 467 465 0 +-1734723475976805e-33 -.1016 -.00
1053756756756756 0 -1 0 1 0 0 50 467 648 0 464 468 459 0 +-.001875 -.01436228095
947534 -.00137751351351351 -.866025403784439 .5 0 -.5 -.866025403784439 0 50 465
 184 0 435 459 466 0 +-1734723475976805e-33 0 -.001053756756756756 0 -1 0 1 0 0
 50 466 215 0 439 465 469 0 +-.00635 -.1016 635e-6 -1 0 0 0 0 1 50 469 216 0 444
 466 470 0 +.003175 -.1016 .00127 0 0 -1 -1 0 0 14 444 206 471 ?439 448 472 6 46
9 -0 0 439 448 23 50 470 217 0 448 469 473 0 +.00635 -.1016 635e-6 -1 0 0 0 0 1
 14 448 208 474 ?444 429 447 6 470 -0 0 444 429 23 50 473 218 0 429 470 19 0 +.0
04445 -.1016 -.001688756756756755 -.663358995061685 0 .74830130540495 .748301305
40495 0 .663358995061685 14 429 210 475 ?448 409 451 6 473 -0 0 448 409 23 50 19
 219 0 409 473 7 0 +-.00127 -.1016 -.00337751351351351 0 0 1 1 0 0 81 1 475 936
 417 429 476 0 427 474 477 80 7 CCCCCDI12 legal_owners0 16 1 lCZ1 417 0 478 8001
 0 0 0 0 3 5 0 0 0 FFFFTFTFFFFFFFFF2 81 1 476 286 31 429 0 475 479 480 481 81 1
 427 935 417 409 482 0 424 475 483 81 1 474 937 417 448 480 0 475 471 484 83 255
 3 477 .615686274509804 .811764705882353 .929411764705882 81 1 480 287 31 448 0
 474 476 485 486 81 1 471 938 417 444 487 0 474 461 488 83 3 484 .61568627450980
4 .811764705882353 .929411764705882 81 1 487 928 31 444 0 471 489 490 491 81 1 4
61 939 417 439 479 0 471 458 492 83 3 488 .615686274509804 .811764705882353 .929
411764705882 81 1 479 285 31 439 0 461 426 476 493 83 3 492 .615686274509804 .81
1764705882353 .929411764705882 80 1 31 494 495 9000 0 0 0 0 3 6 0 0 0 FFTFTFTTFF
FFFFFF1 81 1 426 284 31 17 0 424 460 479 496 82 255 3 493 6 5 2 81 1 460 281 31
 457 0 458 497 426 498 82 3 496 6 4 2 81 1 497 280 31 435 0 462 329 460 499 82 3
 498 6 1 2 81 1 462 941 417 435 497 0 458 500 501 81 1 329 279 31 327 0 0 349 49
7 502 82 3 499 6 0 2 81 1 349 278 31 347 0 0 326 329 503 82 3 502 6 17 1 81 1 32
6 277 31 324 0 0 346 349 504 82 3 503 6 16 1 81 1 346 276 31 344 0 0 335 326 505
 82 3 504 6 15 1 81 1 335 275 31 333 0 0 355 346 506 82 3 505 6 14 1 81 1 355 27
4 31 321 0 0 318 335 507 82 3 506 6 13 1 81 1 318 273 31 316 0 0 339 355 508 82
 3 507 6 12 1 81 1 339 272 31 242 0 0 332 318 509 82 3 508 6 11 1 81 1 332 271 3
1 330 0 0 352 339 510 82 3 509 6 10 1 81 1 352 270 31 350 0 0 323 332 511 82 3 5
10 6 9 1 81 1 323 269 31 320 0 0 343 352 512 82 3 511 6 8 1 81 1 343 268 31 341
 0 0 368 323 513 82 3 512 6 7 1 81 1 368 267 31 366 0 0 364 343 514 82 3 513 6 6
 1 81 1 364 266 31 362 0 0 370 368 515 82 3 514 6 5 1 81 1 370 265 31 26 0 0 358
 364 516 82 3 515 6 4 1 81 1 358 264 31 337 0 0 361 370 517 82 3 516 6 3 1 81 1
 361 263 31 359 0 0 24 358 518 82 3 517 6 2 1 81 1 24 262 31 11 0 0 92 361 519 8
2 3 518 6 1 1 81 1 92 261 31 90 0 0 73 24 520 82 3 519 6 0 1 81 1 73 260 31 71 0
 0 88 92 521 82 3 520 6 11 0 81 1 88 259 31 86 0 0 69 73 522 82 3 521 6 10 0 81
 1 69 258 31 67 0 0 96 88 523 82 3 522 6 9 0 81 1 96 257 31 94 0 0 77 69 524 82
 3 523 6 8 0 81 1 77 256 31 75 0 0 53 96 525 82 3 524 6 7 0 81 1 53 255 31 43 0
 0 60 77 526 82 3 525 6 6 0 81 1 60 254 31 58 0 0 84 53 527 82 3 526 6 5 0 81 1
 84 253 31 55 0 0 65 60 528 82 3 527 6 4 0 81 1 65 252 31 63 0 0 99 84 529 82 3
 528 6 3 0 81 1 99 251 31 62 0 0 80 65 530 82 3 529 6 2 0 81 1 80 250 31 79 0 0
 0 99 531 82 3 530 6 1 0 82 3 531 6 0 0 81 1 500 942 417 464 532 0 462 533 534 8
3 3 501 .615686274509804 .811764705882353 .929411764705882 14 464 612 500 ?535 4
35 536 6 467 -0 0 535 435 23 81 1 532 802 31 464 0 500 537 482 538 81 1 533 943
 417 535 539 0 500 540 541 83 3 534 .615686274509804 .811764705882353 .929411764
705882 14 535 616 533 ?542 464 543 6 468 -0 0 542 464 23 81 1 539 796 31 535 0 5
33 544 545 546 81 1 540 944 417 542 545 0 533 547 548 83 3 541 .615686274509804
 .811764705882353 .929411764705882 14 542 620 540 ?549 535 550 6 551 -0 0 549 53
5 23 81 1 545 798 31 542 0 540 539 552 553 81 1 547 945 417 549 552 0 540 554 55
5 83 3 548 .615686274509804 .811764705882353 .929411764705882 14 549 624 547 ?55
6 542 557 6 558 -0 0 556 542 23 81 1 552 799 31 549 0 547 545 559 560 81 1 554 9
46 417 556 559 0 547 561 562 83 3 555 .615686274509804 .811764705882353 .9294117
64705882 14 556 628 554 ?563 549 47 6 564 -0 0 563 549 23 81 1 559 800 31 556 0
 554 552 537 565 81 1 561 947 417 563 537 0 554 566 567 83 3 562 .61568627450980
4 .811764705882353 .929411764705882 14 563 632 561 ?568 556 569 6 570 -0 0 568 5
56 23 81 1 537 801 31 563 0 561 559 532 571 81 1 566 948 417 568 572 0 561 573 5
74 83 3 567 .615686274509804 .811764705882353 .929411764705882 14 568 636 566 ?2
08 563 388 6 575 +0 0 208 563 23 81 1 572 930 31 568 0 566 490 0 576 81 1 573 94
9 417 208 544 0 566 419 577 83 3 574 .615686274509804 .811764705882353 .92941176
4705882 14 208 489 573 ?413 568 190 6 578 -0 0 413 568 23 81 1 544 795 31 208 0
 573 579 539 580 81 1 419 950 417 413 581 0 573 415 582 83 3 577 .61568627450980
4 .811764705882353 .929411764705882 81 1 581 789 31 413 0 419 256 418 583 83 3 5
82 .615686274509804 .811764705882353 .929411764705882 81 1 256 788 31 254 0 0 27
6 581 584 81 1 418 791 31 414 0 415 581 585 586 82 3 583 10 0 2 81 1 585 792 31
 404 0 420 418 587 588 82 3 586 10 2 2 81 1 420 952 417 404 585 0 415 589 590 81
 1 587 793 31 406 0 589 585 579 591 82 3 588 10 3 2 14 406 505 589 ?185 404 35 6
 592 -0 0 185 404 23 81 1 589 953 417 406 587 0 420 593 594 81 1 579 794 31 185
 0 593 587 544 595 82 3 591 10 4 2 14 185 509 593 ?200 406 180 6 596 -0 0 200 40
6 23 81 1 593 954 417 185 579 0 589 597 598 82 3 595 10 5 2 81 1 597 955 417 200
 490 0 593 599 600 83 3 598 .615686274509804 .811764705882353 .929411764705882 1
4 200 513 597 ?601 185 602 6 603 +0 0 601 185 23 81 1 490 929 31 200 0 597 487 5
72 604 81 1 599 956 417 601 489 0 597 605 606 83 3 600 .615686274509804 .8117647
05882353 .929411764705882 14 601 896 599 ?607 200 608 6 609 +0 0 607 200 23 81 1
 489 927 31 601 0 599 386 487 610 81 1 605 957 417 607 386 0 599 0 611 83 3 606
 .615686274509804 .811764705882353 .929411764705882 14 607 866 605 ?0 601 612 6
 613 +0 0 0 601 23 81 1 386 926 31 607 0 605 382 489 614 83 3 611 .6156862745098
04 .811764705882353 .929411764705882 82 3 614 12 0 2 15 612 860 0 389 607 615 51
 255 613 913 0 607 0 609 0 --330390127702436e-33 -.0154448127142059 -.0033775135
1351351 0 0 1 .00115 1 0 0 51 609 910 0 601 613 603 0 --176494369046061e-31 -.08
61551872857942 -.00337751351351351 0 0 1 .00115 1 0 0 50 603 663 0 200 609 578 0
 +0 -.0508 -.00137751351351351 0 0 -1 1 0 0 50 578 661 0 208 603 423 0 +-.001875
 -.0850726555310636 -.00137751351351351 -.866025403784439 .5 0 -.5 -.86602540378
4439 0 50 423 660 0 413 578 416 0 +0 -.0839901237763331 -.00137751351351351 0 1
 0 0 0 1 17 389 0 612 389 389 0 383 375 0 0 -15 615 861 0 381 607 0 17 381 0 615
 381 381 0 616 20 0 0 +17 616 0 472 616 616 0 381 20 0 0 -15 472 820 0 616 444 6
17 15 617 813 0 380 444 442 17 380 0 617 380 380 0 374 372 0 0 -82 3 610 12 1 2
 15 608 890 0 618 601 379 17 618 0 608 618 618 0 390 384 0 0 -15 379 891 0 374 6
01 0 17 390 0 602 390 390 0 618 384 0 0 +15 602 826 0 390 200 197 82 3 604 12 3
 2 50 596 656 0 185 592 575 0 +-.001875 -.0872377190405247 -.00137751351351351 -
.866025403784438 -.5 0 .5 -.866025403784438 0 50 592 657 0 406 422 596 0 +0 -.08
83202507952553 -.00137751351351351 0 -1 0 0 0 -1 50 575 655 0 568 596 570 0 +0 -
.0508 -.00137751351351351 0 0 -1 1 0 0 50 570 653 0 563 575 564 0 +-.001875 -.01
652734446893645 -.00137751351351351 -.866025403784438 -.5 0 .5 -.866025403784438
 0 50 564 652 0 556 570 558 0 +-3144186300207965e-33 -.017609876223667 -.0013775
1351351351 0 -1 0 0 0 -1 50 558 651 0 549 564 551 0 +.001875 -.01652734446893645
 -.00137751351351351 .866025403784439 -.5 0 .5 .866025403784439 0 50 551 650 0 5
42 558 468 0 +.001875 -.01436228095947534 -.00137751351351351 .866025403784439 .
5 0 -.5 .866025403784439 0 50 468 649 0 535 551 467 0 +0 -.0132797492047448 -.00
137751351351351 0 1 0 0 0 1 50 422 658 0 404 416 592 0 +.001875 -.08723771904052
47 -.00137751351351351 .866025403784439 -.5 0 .5 .866025403784439 0 83 3 594 .61
5686274509804 .811764705882353 .929411764705882 83 3 590 .615686274509804 .81176
4705882353 .929411764705882 81 1 276 787 31 274 0 0 272 256 619 82 3 584 10 35 1
 81 1 272 786 31 270 0 0 268 276 620 82 3 619 10 34 1 81 1 268 785 31 266 0 0 26
4 272 621 82 3 620 10 33 1 81 1 264 784 31 262 0 0 214 268 622 82 3 621 10 32 1
 81 1 214 783 31 258 0 0 211 264 623 82 3 622 10 31 1 82 3 623 10 30 1 82 3 580
 10 6 2 82 3 576 12 4 2 15 388 832 0 383 568 624 15 624 639 0 257 568 0 17 257 0
 624 261 277 105 625 254 0 0 +17 261 0 624 265 257 135 626 258 0 627 +17 277 0 6
24 257 273 121 628 274 0 625 +17 625 0 536 104 141 121 257 254 0 0 -15 536 615 0
 282 464 0 17 104 0 536 282 625 101 124 278 0 299 +17 141 0 536 625 282 105 120
 223 0 626 -17 282 0 536 141 104 117 629 279 0 630 +17 120 0 543 286 626 117 141
 223 0 282 +17 626 0 543 120 138 105 261 258 0 257 -15 543 619 0 286 535 0 17 13
8 0 543 626 286 135 116 311 0 261 -17 286 0 543 138 120 113 630 283 0 631 +17 11
6 0 550 290 627 113 138 311 0 286 +15 550 623 0 290 542 0 17 290 0 550 134 116 1
09 631 287 0 632 +17 627 0 550 116 134 135 265 262 0 0 -17 134 0 550 627 290 131
 112 308 0 265 -17 265 0 624 269 261 131 627 262 0 633 +17 269 0 624 273 265 128
 633 266 0 634 +17 633 0 557 112 130 131 269 266 0 0 -15 557 627 0 294 549 0 17
 112 0 557 294 633 109 134 308 0 290 +17 130 0 557 633 294 128 49 305 0 269 -17
 294 0 557 130 112 106 632 291 0 50 +17 49 0 47 42 634 106 130 305 0 294 +15 47
 631 0 42 556 0 17 634 0 47 49 48 128 273 270 0 0 -17 48 0 47 634 42 126 52 302
 0 273 -17 273 0 624 277 269 126 634 270 0 628 +17 628 0 569 52 124 126 277 274
 0 0 -15 569 635 0 299 563 0 17 52 0 569 299 628 30 48 302 0 635 +17 124 0 569 6
28 299 121 104 278 0 277 -17 299 0 569 124 52 101 635 259 0 629 +17 635 0 410 50
 629 30 299 259 0 0 -17 629 0 410 635 630 101 282 279 0 0 -15 410 317 0 630 409
 454 17 630 0 410 629 631 117 286 283 0 0 -17 631 0 410 630 632 113 290 287 0 0
 -17 632 0 410 631 50 109 294 291 0 0 -17 50 0 410 632 635 106 42 51 0 0 -82 3 5
71 10 12 2 82 3 565 10 11 2 82 3 560 10 10 2 82 3 553 10 9 2 82 3 546 10 7 2 81
 1 482 803 31 409 0 427 532 376 636 82 3 538 10 13 2 81 1 376 922 31 20 0 0 482
 373 637 82 3 636 10 14 2 82 3 637 12 0 1 79 255 9 495 BTI/DetId82 3 491 12 2 2
 81 1 485 288 31 1 0 638 480 144 639 82 3 486 6 7 2 81 1 638 931 640 1 485 14 0
 0 641 81 1 144 729 31 142 0 0 485 162 642 82 3 639 6 0 3 81 1 162 730 31 81 0 0
 144 149 643 82 3 642 10 0 0 81 1 149 731 31 147 0 0 162 166 644 82 3 643 10 1 0
 81 1 166 732 31 164 0 0 149 153 645 82 3 644 10 2 0 81 1 153 733 31 151 0 0 166
 170 646 82 3 645 10 3 0 81 1 170 734 31 168 0 0 153 157 647 82 3 646 10 4 0 81
 1 157 735 31 155 0 0 170 32 648 82 3 647 10 5 0 81 1 32 736 31 172 0 0 157 28 6
49 82 3 648 10 6 0 82 3 649 10 7 0 80 1 640 650 651 8038 0 0 0 0 0 0 0 0 0 TTTTT
TTTTTTTTFTF10 81 1 14 932 650 1 638 2 0 0 652 98 255 6 641 80 97 114 116 32 49 8
0 1 650 653 654 8017 0 0 0 0 0 0 0 0 0 TTTTTTTTTTTTTFTF3 84 255 6 652 Part 179 1
3 654 SDL/TYSA_NAME79 14 651 SDL/TYSA_UNAME83 3 483 .615686274509804 .8117647058
82353 .929411764705882 82 3 481 6 6 2 79 15 478 SDL/TYSA_COLOUR83 3 463 .6156862
74509804 .811764705882353 .929411764705882 83 3 428 .615686274509804 .8117647058
82353 .929411764705882 83 3 421 .615686274509804 .811764705882353 .9294117647058
82 81 1 216 777 31 212 0 0 301 397 655 81 1 396 779 31 395 0 0 397 394 656 82 3
 399 10 25 1 81 1 394 780 31 204 0 0 396 205 657 82 3 656 10 26 1 81 1 205 781 3
1 186 0 0 394 211 658 82 3 657 10 27 1 82 3 658 10 28 1 81 1 301 776 31 278 0 0
 304 216 659 82 3 655 10 24 1 81 1 304 775 31 302 0 0 307 301 660 82 3 659 10 23
 1 81 1 307 774 31 305 0 0 310 304 661 82 3 660 10 22 1 81 1 310 773 31 308 0 0
 313 307 662 82 3 661 10 21 1 81 1 313 772 31 311 0 0 315 310 663 82 3 662 10 20
 1 81 1 315 771 31 223 0 0 193 313 664 82 3 663 10 19 1 81 1 193 770 31 183 0 0
 252 315 665 82 3 664 10 18 1 81 1 252 769 31 194 0 0 251 193 666 82 3 665 10 17
 1 81 1 251 768 31 249 0 0 248 252 667 82 3 666 10 16 1 81 1 248 767 31 246 0 0
 245 251 668 82 3 667 10 15 1 81 1 245 766 31 243 0 0 241 248 669 82 3 668 10 14
 1 81 1 241 765 31 209 0 0 281 245 670 82 3 669 10 13 1 81 1 281 764 31 279 0 0
 298 241 671 82 3 670 10 12 1 81 1 298 763 31 259 0 0 296 281 672 82 3 671 10 11
 1 81 1 296 762 31 51 0 0 293 298 673 82 3 672 10 10 1 81 1 293 761 31 291 0 0 2
89 296 674 82 3 673 10 9 1 81 1 289 760 31 287 0 0 285 293 675 82 3 674 10 8 1 8
1 1 285 759 31 283 0 0 239 289 676 82 3 675 10 7 1 81 1 239 758 31 206 0 0 222 2
85 677 82 3 676 10 6 1 81 1 222 757 31 188 0 0 225 239 678 82 3 677 10 5 1 81 1
 225 756 31 39 0 0 228 222 679 82 3 678 10 4 1 81 1 228 755 31 226 0 0 232 225 6
80 82 3 679 10 3 1 81 1 232 754 31 230 0 0 236 228 681 82 3 680 10 2 1 81 1 236
 753 31 234 0 0 123 232 682 82 3 681 10 1 1 81 1 123 752 31 121 0 0 103 236 683
 82 3 682 10 0 1 81 1 103 751 31 101 0 0 45 123 684 82 3 683 10 23 0 81 1 45 750
 31 126 0 0 41 103 685 82 3 684 10 22 0 82 3 685 10 21 0 81 1 377 924 31 384 0 0
 373 382 686 82 3 686 12 2 1 82 3 387 12 3 1 82 3 378 12 1 1 82 3 215 10 29 1 81
 1 159 739 31 125 0 0 33 177 687 81 1 119 741 31 117 0 0 177 140 688 82 3 179 10
 11 0 81 1 140 742 31 105 0 0 119 115 689 82 3 688 10 12 0 81 1 115 743 31 113 0
 0 140 137 690 82 3 689 10 13 0 81 1 137 744 31 135 0 0 115 111 691 82 3 690 10
 14 0 81 1 111 745 31 109 0 0 137 133 692 82 3 691 10 15 0 81 1 133 746 31 131 0
 0 111 108 693 82 3 692 10 16 0 81 1 108 747 31 106 0 0 133 44 694 82 3 693 10 1
7 0 81 1 44 748 31 128 0 0 108 41 695 82 3 694 10 18 0 82 3 695 10 19 0 81 1 33
 738 31 175 0 0 28 159 696 82 3 687 10 10 0 82 3 696 10 9 0 82 3 46 10 20 0 82 3
 34 10 8 0 19 18 228 0 1 0 10 6 0 S0 74 4 CI16 index_map_offset0 0 1 dCCZ20 16 5
 0 0 572 638 14 2 605 0 0 0 0 0 0 0 0 0 0 0 0 0 0 0 80 1 13 417 697 8040 0 0 0 0
 3 5 0 0 0 TTTFFFFFFFFFFFFF2 83 3 15 .615686274509804 .811764705882353 .92941176
4705882 79 17 697 SDL/TYSA_COLOUR_21 0 
